<?xml version="1.0" encoding="UTF-8"?>
<svg version="1.1" xmlns="http://www.w3.org/2000/svg" width="976" height="976">
<path d="M0 0 C1.23713745 0.25704712 1.23713745 0.25704712 2.49926758 0.51928711 C47.76344344 10.27423845 84.81536964 34.46158528 116.921875 67.0859375 C118.79872052 68.92950561 120.69717895 70.60966168 122.75 72.25 C123.53375 72.91 124.3175 73.57 125.125 74.25 C125.125 74.91 125.125 75.57 125.125 76.25 C132.09543535 70.78960093 138.38427669 65.11608213 144.58203125 58.8046875 C147.94754666 55.4236628 151.49007038 52.3341827 155.125 49.25 C156.04410156 48.43015625 156.96320313 47.6103125 157.91015625 46.765625 C202.68080263 7.20152848 260.60494263 -6.48411657 319.06982422 -3.60498047 C324.13959979 -3.26018465 329.1195961 -2.61559616 334.125 -1.75 C335.28515625 -1.55664062 335.28515625 -1.55664062 336.46875 -1.359375 C384.37249992 6.82670885 430.77026242 30.44592909 462.125 68.25 C462.93066406 69.15621094 463.73632812 70.06242187 464.56640625 70.99609375 C488.32914343 97.88414745 504.53084282 131.49229932 511.9375 166.5 C512.13239014 167.42055176 512.32728027 168.34110352 512.52807617 169.28955078 C515.40586944 183.77617692 516.50978863 198.13524976 516.4375 212.875 C516.43476578 214.04421997 516.43476578 214.04421997 516.43197632 215.23706055 C516.35258893 235.52092709 513.80828952 254.75231805 508.125 274.25 C507.90473145 275.00587402 507.68446289 275.76174805 507.45751953 276.54052734 C500.94612388 298.35393922 491.08222055 319.2126097 477.125 337.25 C477.93130859 337.25410889 478.73761719 337.25821777 479.56835938 337.26245117 C483.25462936 337.29553444 486.93927914 337.36619885 490.625 337.4375 C491.8934375 337.44330078 493.161875 337.44910156 494.46875 337.45507812 C501.83085768 337.62762752 507.56921027 338.06459625 513.125 343.25 C516.29848809 347.71271762 516.90196834 351.92829902 516.125 357.25 C514.17114079 362.59740414 511.21263713 365.70618143 506.125 368.25 C504.51246925 368.13559545 502.9049293 367.94770092 501.30371094 367.7253418 C468.77890903 363.44490252 468.77890903 363.44490252 439.27253914 374.99512386 C433.00533033 380.10651713 427.37885531 385.84343685 421.9375 391.8125 C421.45119614 392.34549587 420.96489227 392.87849174 420.46385193 393.42763901 C414.85454001 399.61927046 409.49027659 405.98162639 404.3228302 412.5483551 C398.21219839 420.05974395 391.56995046 426.94042362 384.70751953 433.76513672 C383.67341604 434.79731703 382.63954294 435.82972822 381.60588074 436.86235046 C379.395318 439.06977311 377.18321705 441.275638 374.96988297 443.48028183 C371.47135821 446.96520739 367.97671991 450.45401311 364.4826355 453.94338989 C357.07472769 461.34023924 349.66257123 468.73282444 342.25 476.125 C334.22550556 484.12745987 326.20175907 492.13066164 318.18285644 500.1387254 C314.70724241 503.60935178 311.22920388 507.07752463 307.7493012 510.54385066 C305.59204481 512.69366879 303.43684333 514.84553779 301.28220558 516.99798012 C300.28049111 517.99781685 299.27790979 518.99678594 298.27441597 519.99483681 C296.90877468 521.35330076 295.54646892 522.71511546 294.18435669 524.07711792 C293.03791781 525.22022588 293.03791781 525.22022588 291.86831856 526.38642693 C290.06060974 528.14174682 290.06060974 528.14174682 289.125 530.25 C288.465 530.25 287.805 530.25 287.125 530.25 C287.125 530.91 287.125 531.57 287.125 532.25 C286.465 532.25 285.805 532.25 285.125 532.25 C284.8775 532.82234375 284.63 533.3946875 284.375 533.984375 C282.93183801 536.60010611 281.24283778 538.39773456 279.125 540.5 C278.42375 541.20640625 277.7225 541.9128125 277 542.640625 C275.125 544.25 275.125 544.25 273.125 544.25 C272.88618009 544.81385942 272.64736017 545.37771883 272.40130329 545.95866489 C270.84563105 548.75154841 268.96881514 550.65184698 266.70414734 552.91136169 C265.3099054 554.30972763 265.3099054 554.30972763 263.88749695 555.73634338 C262.8543708 556.76239146 261.8211492 557.78834344 260.7878418 558.81420898 C259.70164762 559.89983889 258.6158939 560.98590963 257.5305481 562.0723877 C254.58240739 565.02110266 251.62813557 567.96360527 248.6727407 570.90504718 C245.57917798 573.98609961 242.49128529 577.07282397 239.40278625 580.15895081 C233.54792295 586.00759448 227.68798202 591.85112323 221.82620317 597.69283491 C215.17368831 604.32306153 208.52678895 610.95890532 201.88038766 617.59525955 C190.5143317 628.9439404 179.14410528 640.28842862 167.76908875 651.62812805 C167.28726995 652.10846766 166.80545115 652.58880727 166.30903178 653.08370262 C165.02879232 654.35998145 163.74848924 655.63619647 162.46818066 656.91240597 C158.48596093 660.88513127 154.51157182 664.86528631 150.55078125 668.859375 C148.84641771 670.57297987 147.1419889 672.28651982 145.4375 674 C144.57060547 674.87527344 143.70371094 675.75054688 142.81054688 676.65234375 C141.98232422 677.48378906 141.15410156 678.31523438 140.30078125 679.171875 C139.54708252 679.93081055 138.79338379 680.68974609 138.0168457 681.47167969 C134.78762691 684.50712035 132.35809476 684.52065879 128 684.6875 C126.90429688 684.74808594 125.80859375 684.80867187 124.6796875 684.87109375 C115.64313804 683.29218016 108.78554537 674.19696664 102.578125 667.96191406 C101.54288723 666.92939139 100.50722558 665.89729357 99.47117615 664.86558533 C96.67988123 662.08334812 93.89487682 659.29489508 91.11129379 656.5049448 C88.19284135 653.58140609 85.26948672 650.6627757 82.34692383 647.74334717 C77.44789712 642.847949 72.55308101 637.94837051 67.66064453 633.04638672 C61.99979419 627.37461746 56.33172565 621.71013818 50.65992546 616.04932046 C45.78563624 611.1840924 40.9152365 606.31499651 36.04809761 601.44261527 C33.14281525 598.53421143 30.23619002 595.62718427 27.3260498 592.72364044 C24.59644087 589.99978855 21.87173217 587.2711297 19.15080452 584.53860664 C18.1495357 583.53468397 17.14654374 582.53247663 16.14175224 581.5320797 C14.7756869 580.17144162 13.41632549 578.80408254 12.05737305 577.43634033 C11.29345749 576.67167072 10.52954193 575.90700111 9.74247742 575.1191597 C8.125 573.25 8.125 573.25 8.125 571.25 C7.465 571.25 6.805 571.25 6.125 571.25 C6.125 570.59 6.125 569.93 6.125 569.25 C4.805 568.59 3.485 567.93 2.125 567.25 C2.125 566.59 2.125 565.93 2.125 565.25 C1.56833649 565.03094498 1.01167297 564.81188995 0.43814087 564.5861969 C-2.63678186 562.80995306 -4.53580526 560.53203383 -6.88525391 557.87084961 C-12.61984765 551.46772254 -18.61862469 545.37730773 -24.7109375 539.31640625 C-25.80447201 538.22474518 -26.89777977 537.13285692 -27.99087524 536.04075623 C-30.83067722 533.20471877 -33.6734677 530.37169664 -36.51696777 527.53936768 C-39.41289408 524.65374244 -42.30593356 521.76522605 -45.19921875 518.87695312 C-50.28039873 513.80526571 -55.36403927 508.73605669 -60.44955444 503.66871643 C-61.24995148 502.87054001 -62.05034851 502.07236359 -62.875 501.25 C-63.69721039 500.43834885 -64.51942078 499.62669769 -65.36654663 498.79045105 C-67.98713017 496.13643951 -70.49297036 493.40328634 -72.99316406 490.63574219 C-78.02221972 485.11119835 -83.22185151 479.78136282 -88.52828217 474.52155304 C-90.03745056 473.02551108 -91.54315332 471.52604912 -93.04815674 470.02581787 C-96.23756553 466.84765191 -99.43096607 463.6735168 -102.625 460.5 C-106.34811881 456.80068183 -110.0694732 453.09962095 -113.78662872 449.39431 C-115.25506682 447.93225154 -116.72652714 446.47328558 -118.19818115 445.01446533 C-122.02928154 441.19734924 -125.8193406 437.39451131 -129.33886719 433.28613281 C-133.46867797 428.47209303 -137.97536162 424.03743034 -142.47575378 419.57408142 C-144.06853491 417.99426867 -145.65799157 416.41117414 -147.2467041 414.82727051 C-150.61997313 411.46533139 -153.99717602 408.10736181 -157.375 404.75 C-161.29471835 400.85402651 -165.21272742 396.95636462 -169.12651062 393.0544281 C-170.67915238 391.50818445 -172.23481403 389.9650262 -173.79064941 388.42199707 C-178.5054837 383.73117536 -183.08273 378.98518095 -187.40924072 373.93170166 C-189.3874242 371.66208312 -191.51475891 369.58208779 -193.6953125 367.5078125 C-204.75636911 356.8254526 -214.4972985 346.15498074 -222.875 333.25 C-223.26429688 332.6631543 -223.65359375 332.07630859 -224.0546875 331.47167969 C-238.24373858 309.99941888 -247.08740812 286.20095167 -252.875 261.25 C-253.04370605 260.54004883 -253.21241211 259.83009766 -253.38623047 259.09863281 C-264.06731759 213.54592326 -257.90617623 161.98808323 -236.875 120.25 C-236.31087402 119.104104 -236.31087402 119.104104 -235.73535156 117.93505859 C-226.85879376 99.96502168 -216.18200105 84.20774295 -202.875 69.25 C-202.43333496 68.74662109 -201.99166992 68.24324219 -201.53662109 67.72460938 C-169.03487439 30.74927431 -123.61606997 5.72867415 -74.875 -1.75 C-73.81676025 -1.92055908 -72.75852051 -2.09111816 -71.66821289 -2.2668457 C-67.45731448 -2.80320201 -63.31363653 -3.0121592 -59.07421875 -3.13671875 C-57.82134819 -3.17500542 -57.82134819 -3.17500542 -56.54316711 -3.21406555 C-54.7774606 -3.26586065 -53.01168394 -3.31531159 -51.24584961 -3.36254883 C-48.6080416 -3.43622793 -45.97121757 -3.52741722 -43.33398438 -3.61914062 C-28.67228546 -4.06059438 -14.38789626 -2.99954034 0 0 Z " fill="#ED6A62" transform="translate(351.875,164.75)"/>
<path d="M0 0 C1.23713745 0.25704712 1.23713745 0.25704712 2.49926758 0.51928711 C47.76344344 10.27423845 84.81536964 34.46158528 116.921875 67.0859375 C118.79872052 68.92950561 120.69717895 70.60966168 122.75 72.25 C123.53375 72.91 124.3175 73.57 125.125 74.25 C125.125 74.91 125.125 75.57 125.125 76.25 C132.09543535 70.78960093 138.38427669 65.11608213 144.58203125 58.8046875 C147.94754666 55.4236628 151.49007038 52.3341827 155.125 49.25 C156.04410156 48.43015625 156.96320313 47.6103125 157.91015625 46.765625 C202.68080263 7.20152848 260.60494263 -6.48411657 319.06982422 -3.60498047 C324.13959979 -3.26018465 329.1195961 -2.61559616 334.125 -1.75 C335.28515625 -1.55664062 335.28515625 -1.55664062 336.46875 -1.359375 C384.37249992 6.82670885 430.77026242 30.44592909 462.125 68.25 C462.93066406 69.15621094 463.73632812 70.06242187 464.56640625 70.99609375 C488.32914343 97.88414745 504.53084282 131.49229932 511.9375 166.5 C512.13239014 167.42055176 512.32728027 168.34110352 512.52807617 169.28955078 C515.40586944 183.77617692 516.50978863 198.13524976 516.4375 212.875 C516.43476578 214.04421997 516.43476578 214.04421997 516.43197632 215.23706055 C516.35258893 235.52092709 513.80828952 254.75231805 508.125 274.25 C507.90473145 275.00587402 507.68446289 275.76174805 507.45751953 276.54052734 C500.94612388 298.35393922 491.08222055 319.2126097 477.125 337.25 C477.93130859 337.25410889 478.73761719 337.25821777 479.56835938 337.26245117 C483.25462936 337.29553444 486.93927914 337.36619885 490.625 337.4375 C491.8934375 337.44330078 493.161875 337.44910156 494.46875 337.45507812 C501.83085768 337.62762752 507.56921027 338.06459625 513.125 343.25 C516.29848809 347.71271762 516.90196834 351.92829902 516.125 357.25 C514.17114079 362.59740414 511.21263713 365.70618143 506.125 368.25 C504.51246925 368.13559545 502.9049293 367.94770092 501.30371094 367.7253418 C468.77890903 363.44490252 468.77890903 363.44490252 439.27253914 374.99512386 C433.00533033 380.10651713 427.37885531 385.84343685 421.9375 391.8125 C421.45119614 392.34549587 420.96489227 392.87849174 420.46385193 393.42763901 C414.85454001 399.61927046 409.49027659 405.98162639 404.3228302 412.5483551 C398.21219839 420.05974395 391.56995046 426.94042362 384.70751953 433.76513672 C383.67341604 434.79731703 382.63954294 435.82972822 381.60588074 436.86235046 C379.395318 439.06977311 377.18321705 441.275638 374.96988297 443.48028183 C371.47135821 446.96520739 367.97671991 450.45401311 364.4826355 453.94338989 C357.07472769 461.34023924 349.66257123 468.73282444 342.25 476.125 C334.22550556 484.12745987 326.20175907 492.13066164 318.18285644 500.1387254 C314.70724241 503.60935178 311.22920388 507.07752463 307.7493012 510.54385066 C305.59204481 512.69366879 303.43684333 514.84553779 301.28220558 516.99798012 C300.28049111 517.99781685 299.27790979 518.99678594 298.27441597 519.99483681 C296.90877468 521.35330076 295.54646892 522.71511546 294.18435669 524.07711792 C293.03791781 525.22022588 293.03791781 525.22022588 291.86831856 526.38642693 C290.06060974 528.14174682 290.06060974 528.14174682 289.125 530.25 C288.465 530.25 287.805 530.25 287.125 530.25 C287.125 530.91 287.125 531.57 287.125 532.25 C286.465 532.25 285.805 532.25 285.125 532.25 C284.8775 532.82234375 284.63 533.3946875 284.375 533.984375 C282.93183801 536.60010611 281.24283778 538.39773456 279.125 540.5 C278.42375 541.20640625 277.7225 541.9128125 277 542.640625 C275.125 544.25 275.125 544.25 273.125 544.25 C272.88618009 544.81385942 272.64736017 545.37771883 272.40130329 545.95866489 C270.84563105 548.75154841 268.96881514 550.65184698 266.70414734 552.91136169 C265.3099054 554.30972763 265.3099054 554.30972763 263.88749695 555.73634338 C262.8543708 556.76239146 261.8211492 557.78834344 260.7878418 558.81420898 C259.70164762 559.89983889 258.6158939 560.98590963 257.5305481 562.0723877 C254.58240739 565.02110266 251.62813557 567.96360527 248.6727407 570.90504718 C245.57917798 573.98609961 242.49128529 577.07282397 239.40278625 580.15895081 C233.54792295 586.00759448 227.68798202 591.85112323 221.82620317 597.69283491 C215.17368831 604.32306153 208.52678895 610.95890532 201.88038766 617.59525955 C190.5143317 628.9439404 179.14410528 640.28842862 167.76908875 651.62812805 C167.28726995 652.10846766 166.80545115 652.58880727 166.30903178 653.08370262 C165.02879232 654.35998145 163.74848924 655.63619647 162.46818066 656.91240597 C158.48596093 660.88513127 154.51157182 664.86528631 150.55078125 668.859375 C148.84641771 670.57297987 147.1419889 672.28651982 145.4375 674 C144.57060547 674.87527344 143.70371094 675.75054688 142.81054688 676.65234375 C141.98232422 677.48378906 141.15410156 678.31523438 140.30078125 679.171875 C139.54708252 679.93081055 138.79338379 680.68974609 138.0168457 681.47167969 C134.78762691 684.50712035 132.35809476 684.52065879 128 684.6875 C126.90429688 684.74808594 125.80859375 684.80867187 124.6796875 684.87109375 C115.64313804 683.29218016 108.78554537 674.19696664 102.578125 667.96191406 C101.54288723 666.92939139 100.50722558 665.89729357 99.47117615 664.86558533 C96.67988123 662.08334812 93.89487682 659.29489508 91.11129379 656.5049448 C88.19284135 653.58140609 85.26948672 650.6627757 82.34692383 647.74334717 C77.44789712 642.847949 72.55308101 637.94837051 67.66064453 633.04638672 C61.99979419 627.37461746 56.33172565 621.71013818 50.65992546 616.04932046 C45.78563624 611.1840924 40.9152365 606.31499651 36.04809761 601.44261527 C33.14281525 598.53421143 30.23619002 595.62718427 27.3260498 592.72364044 C24.59644087 589.99978855 21.87173217 587.2711297 19.15080452 584.53860664 C18.1495357 583.53468397 17.14654374 582.53247663 16.14175224 581.5320797 C14.7756869 580.17144162 13.41632549 578.80408254 12.05737305 577.43634033 C11.29345749 576.67167072 10.52954193 575.90700111 9.74247742 575.1191597 C8.125 573.25 8.125 573.25 8.125 571.25 C7.465 571.25 6.805 571.25 6.125 571.25 C6.125 570.59 6.125 569.93 6.125 569.25 C4.805 568.59 3.485 567.93 2.125 567.25 C2.125 566.59 2.125 565.93 2.125 565.25 C1.56833649 565.03094498 1.01167297 564.81188995 0.43814087 564.5861969 C-2.63678186 562.80995306 -4.53580526 560.53203383 -6.88525391 557.87084961 C-12.61984765 551.46772254 -18.61862469 545.37730773 -24.7109375 539.31640625 C-25.80447201 538.22474518 -26.89777977 537.13285692 -27.99087524 536.04075623 C-30.83067722 533.20471877 -33.6734677 530.37169664 -36.51696777 527.53936768 C-39.41289408 524.65374244 -42.30593356 521.76522605 -45.19921875 518.87695312 C-50.28039873 513.80526571 -55.36403927 508.73605669 -60.44955444 503.66871643 C-61.24995148 502.87054001 -62.05034851 502.07236359 -62.875 501.25 C-63.69721039 500.43834885 -64.51942078 499.62669769 -65.36654663 498.79045105 C-67.98713017 496.13643951 -70.49297036 493.40328634 -72.99316406 490.63574219 C-78.02221972 485.11119835 -83.22185151 479.78136282 -88.52828217 474.52155304 C-90.03745056 473.02551108 -91.54315332 471.52604912 -93.04815674 470.02581787 C-96.23756553 466.84765191 -99.43096607 463.6735168 -102.625 460.5 C-106.34811881 456.80068183 -110.0694732 453.09962095 -113.78662872 449.39431 C-115.25506682 447.93225154 -116.72652714 446.47328558 -118.19818115 445.01446533 C-122.02928154 441.19734924 -125.8193406 437.39451131 -129.33886719 433.28613281 C-133.46867797 428.47209303 -137.97536162 424.03743034 -142.47575378 419.57408142 C-144.06853491 417.99426867 -145.65799157 416.41117414 -147.2467041 414.82727051 C-150.61997313 411.46533139 -153.99717602 408.10736181 -157.375 404.75 C-161.29471835 400.85402651 -165.21272742 396.95636462 -169.12651062 393.0544281 C-170.67915238 391.50818445 -172.23481403 389.9650262 -173.79064941 388.42199707 C-178.5054837 383.73117536 -183.08273 378.98518095 -187.40924072 373.93170166 C-189.3874242 371.66208312 -191.51475891 369.58208779 -193.6953125 367.5078125 C-204.75636911 356.8254526 -214.4972985 346.15498074 -222.875 333.25 C-223.26429688 332.6631543 -223.65359375 332.07630859 -224.0546875 331.47167969 C-238.24373858 309.99941888 -247.08740812 286.20095167 -252.875 261.25 C-253.04370605 260.54004883 -253.21241211 259.83009766 -253.38623047 259.09863281 C-264.06731759 213.54592326 -257.90617623 161.98808323 -236.875 120.25 C-236.31087402 119.104104 -236.31087402 119.104104 -235.73535156 117.93505859 C-226.85879376 99.96502168 -216.18200105 84.20774295 -202.875 69.25 C-202.43333496 68.74662109 -201.99166992 68.24324219 -201.53662109 67.72460938 C-169.03487439 30.74927431 -123.61606997 5.72867415 -74.875 -1.75 C-73.81676025 -1.92055908 -72.75852051 -2.09111816 -71.66821289 -2.2668457 C-67.45731448 -2.80320201 -63.31363653 -3.0121592 -59.07421875 -3.13671875 C-57.82134819 -3.17500542 -57.82134819 -3.17500542 -56.54316711 -3.21406555 C-54.7774606 -3.26586065 -53.01168394 -3.31531159 -51.24584961 -3.36254883 C-48.6080416 -3.43622793 -45.97121757 -3.52741722 -43.33398438 -3.61914062 C-28.67228546 -4.06059438 -14.38789626 -2.99954034 0 0 Z M262.125 28.25 C261.26358398 28.41628906 260.40216797 28.58257812 259.51464844 28.75390625 C230.71944365 34.48957965 205.29227855 47.48727232 182.125 65.25 C180.96291016 66.06210938 180.96291016 66.06210938 179.77734375 66.890625 C179.23207031 67.33921875 178.68679688 67.7878125 178.125 68.25 C178.125 68.91 178.125 69.57 178.125 70.25 C177.55265625 70.49363281 176.9803125 70.73726562 176.390625 70.98828125 C173.72066462 72.47517298 171.98670993 74.23083908 169.875 76.4375 C166.44473961 79.94610239 162.93516432 83.24506683 159.21875 86.4453125 C153.4133569 91.44921476 147.76230726 96.54752105 142.4375 102.0625 C137.86865495 106.64737609 133.83986551 110.38111753 127.0625 110.625 C123.34465609 110.27091963 120.49325138 109.85392923 117.125 108.25 C116.83238281 107.64929688 116.53976562 107.04859375 116.23828125 106.4296875 C114.82324492 103.65919531 113.03543222 102.16112683 110.6875 100.125 C109.35332031 98.95324219 109.35332031 98.95324219 107.9921875 97.7578125 C107.04601562 96.93023437 106.09984375 96.10265625 105.125 95.25 C103.18310227 93.50488124 101.24553867 91.75492671 99.3125 90 C98.43980469 89.21109375 97.56710937 88.4221875 96.66796875 87.609375 C94.08794765 85.2156227 91.61167659 82.7403715 89.125 80.25 C75.69576948 66.97688299 75.69576948 66.97688299 60.17578125 56.3984375 C57.40540252 54.84702541 54.74745843 53.13223797 52.0625 51.4375 C36.89090765 42.10246279 21.19031858 36.26435013 4.125 31.25 C3.13161621 30.95754395 2.13823242 30.66508789 1.11474609 30.36376953 C-13.29090437 26.33768238 -27.51675318 25.81135769 -42.375 25.8125 C-43.27534973 25.81200653 -44.17569946 25.81151306 -45.10333252 25.81100464 C-47.70473794 25.81792596 -50.30508592 25.84363462 -52.90625 25.87890625 C-54.06276566 25.8873204 -54.06276566 25.8873204 -55.24264526 25.89590454 C-59.97742939 25.99656242 -64.3207975 26.64987557 -68.91905212 27.78778076 C-71.5716565 28.41463017 -74.22803668 28.66262691 -76.9375 28.9375 C-87.86771512 30.39566541 -98.36612518 34.00952615 -108.875 37.25 C-108.875 37.91 -108.875 38.57 -108.875 39.25 C-110.050625 39.3428125 -110.050625 39.3428125 -111.25 39.4375 C-116.25875896 40.56015287 -120.37144356 42.83552104 -124.875 45.25 C-126.21304688 45.95189453 -126.21304688 45.95189453 -127.578125 46.66796875 C-142.38695944 54.55896196 -155.6821406 64.11131424 -167.94921875 75.53515625 C-169.875 77.25 -169.875 77.25 -171.875 78.25 C-171.875 78.91 -171.875 79.57 -171.875 80.25 C-172.535 80.25 -173.195 80.25 -173.875 80.25 C-175.35269218 81.88432755 -176.75769319 83.58476368 -178.125 85.3125 C-180.8344861 88.70920632 -183.55300145 92.06313648 -186.4375 95.3125 C-189.08785749 97.87033592 -189.08785749 97.87033592 -188.875 100.25 C-189.535 100.25 -190.195 100.25 -190.875 100.25 C-192.46157989 102.29920299 -193.89673211 104.33535102 -195.3125 106.5 C-195.96750488 107.49580078 -195.96750488 107.49580078 -196.63574219 108.51171875 C-205.13313926 121.65886256 -212.8271616 135.39358287 -217.875 150.25 C-218.25132568 151.34634766 -218.25132568 151.34634766 -218.63525391 152.46484375 C-220.61203171 158.3353488 -222.32124482 164.2542413 -223.875 170.25 C-224.19694336 171.47662354 -224.19694336 171.47662354 -224.52539062 172.72802734 C-234.27144442 211.87467677 -229.29228136 258.47390172 -210.875 294.25 C-210.53065918 294.93690918 -210.18631836 295.62381836 -209.83154297 296.33154297 C-203.34840415 309.25990751 -195.89506449 320.86778489 -186.5625 331.9375 C-185.80682739 332.83891724 -185.80682739 332.83891724 -185.03588867 333.75854492 C-182.49036898 336.70287829 -180.34570827 338.57210792 -176.875 340.25 C-176.1637314 341.56008366 -175.50261328 342.89784476 -174.875 344.25 C-170.51483614 349.6313835 -165.78308118 354.56186198 -160.4296875 358.953125 C-158.0919784 360.9031738 -155.99797825 363.0711539 -153.875 365.25 C-152.9675 366.11625 -152.06 366.9825 -151.125 367.875 C-148.875 370.25 -148.875 370.25 -147.875 373.25 C-146.41264938 374.73629143 -146.41264938 374.73629143 -144.625 376.125 C-140.89183812 379.20791852 -137.48767988 382.51786235 -134.1875 386.0625 C-132.92281729 387.47363777 -132.92281729 387.47363777 -130.875 387.25 C-130.61976563 387.83193115 -130.36453125 388.4138623 -130.1015625 389.01342773 C-128.75083737 391.47640403 -127.25952615 393.07791981 -125.25 395.03515625 C-124.19039062 396.07833008 -124.19039062 396.07833008 -123.109375 397.14257812 C-122.37203125 397.85865234 -121.6346875 398.57472656 -120.875 399.3125 C-119.41443012 400.73859839 -117.95600233 402.16689484 -116.5 403.59765625 C-115.85289062 404.22679932 -115.20578125 404.85594238 -114.5390625 405.50415039 C-112.875 407.25 -112.875 407.25 -110.875 410.25 C-110.215 410.25 -109.555 410.25 -108.875 410.25 C-108.38 411.735 -108.38 411.735 -107.875 413.25 C-106.18346256 414.96452342 -106.18346256 414.96452342 -104.125 416.625 C-100.88615563 419.37311037 -97.84064503 422.2042024 -94.875 425.25 C-93.6375 426.4875 -93.6375 426.4875 -92.375 427.75 C-91.1375 428.9875 -91.1375 428.9875 -89.875 430.25 C-89.00875 431.095625 -88.1425 431.94125 -87.25 432.8125 C-84.875 435.25 -84.875 435.25 -83.1875 437.5625 C-82.754375 438.119375 -82.32125 438.67625 -81.875 439.25 C-81.215 439.25 -80.555 439.25 -79.875 439.25 C-79.6275 439.8275 -79.38 440.405 -79.125 441 C-77.69200012 443.57939979 -76.09075324 445.31121592 -73.875 447.25 C-73.215 447.25 -72.555 447.25 -71.875 447.25 C-71.6275 447.8275 -71.38 448.405 -71.125 449 C-69.69200012 451.57939979 -68.09075324 453.31121592 -65.875 455.25 C-65.215 455.25 -64.555 455.25 -63.875 455.25 C-63.60856689 455.84240479 -63.34213379 456.43480957 -63.06762695 457.04516602 C-61.85054782 459.29520525 -60.61200372 460.74331612 -58.79296875 462.52734375 C-58.19033203 463.12353516 -57.58769531 463.71972656 -56.96679688 464.33398438 C-56.33837891 464.94564453 -55.70996094 465.55730469 -55.0625 466.1875 C-54.13727539 467.09918945 -54.13727539 467.09918945 -53.19335938 468.02929688 C-51.98353782 469.22111896 -50.77183309 470.41103296 -49.55810547 471.59887695 C-47.3143909 473.79995638 -45.0955164 476.02555348 -42.875 478.25 C-42.05 479.054375 -41.225 479.85875 -40.375 480.6875 C-37.70802891 483.42114537 -35.31299451 486.31190405 -32.875 489.25 C-30.81332739 491.56418291 -30.81332739 491.56418291 -28.875 493.25 C-28.215 493.25 -27.555 493.25 -26.875 493.25 C-26.215 494.57 -25.555 495.89 -24.875 497.25 C-24.215 497.25 -23.555 497.25 -22.875 497.25 C-22.48396843 498.12900719 -22.48396843 498.12900719 -22.08503723 499.02577209 C-20.7973712 501.39269325 -19.42302058 502.94310509 -17.5144043 504.83764648 C-16.8299675 505.52193222 -16.1455307 506.20621796 -15.44035339 506.91123962 C-14.33099174 508.00511742 -14.33099174 508.00511742 -13.19921875 509.12109375 C-12.43704544 509.88043716 -11.67487213 510.63978058 -10.88960266 511.4221344 C-8.45189176 513.84865978 -6.00733244 516.26815209 -3.5625 518.6875 C-1.9272755 520.31268947 -0.29250458 521.93833545 1.34179688 523.56445312 C4.35046568 526.55679917 7.36171287 529.54649553 10.3762207 532.53295898 C13.3006749 535.43051338 16.21538559 538.3375352 19.125 541.25 C20.44464699 542.55926488 21.76493407 543.86788499 23.0859375 545.17578125 C24.55734884 546.6379633 26.0287016 548.1002043 27.5 549.5625 C28.22960937 550.28373047 28.95921875 551.00496094 29.7109375 551.74804688 C33.86035073 555.87893594 37.7928674 560.08070916 41.50634766 564.61010742 C43.04577456 566.35884421 43.04577456 566.35884421 45.20068359 567.22387695 C47.125 568.25 47.125 568.25 48.04571533 570.10137939 C49.21198301 572.42316423 50.47380784 573.83412694 52.31787109 575.65405273 C52.96549408 576.29829697 53.61311707 576.9425412 54.28036499 577.60630798 C55.32881088 578.63456444 55.32881088 578.63456444 56.3984375 579.68359375 C57.11859039 580.39854507 57.83874329 581.1134964 58.58071899 581.85011292 C60.88244889 584.13404231 63.19074256 586.41118386 65.5 588.6875 C67.80126147 590.96107893 70.10102898 593.23611821 72.39785767 595.51417542 C73.82637313 596.93050749 75.25755372 598.34415798 76.69174194 599.75474548 C79.45941413 602.49477632 82.05455594 605.16073909 84.47119141 608.22290039 C85.01694824 608.89184326 85.56270508 609.56078613 86.125 610.25 C86.785 610.25 87.445 610.25 88.125 610.25 C88.455 611.24 88.785 612.23 89.125 613.25 C89.764375 613.394375 90.40375 613.53875 91.0625 613.6875 C91.743125 613.873125 92.42375 614.05875 93.125 614.25 C93.82894612 615.56403276 94.48845658 616.9020257 95.125 618.25 C96.76802953 619.93997323 98.43971312 621.60216394 100.125 623.25 C101.96170981 625.37567493 103.77538174 627.51797454 105.57421875 629.67578125 C106.08597656 630.19527344 106.59773438 630.71476563 107.125 631.25 C107.785 631.25 108.445 631.25 109.125 631.25 C109.455 632.24 109.785 633.23 110.125 634.25 C110.785 634.25 111.445 634.25 112.125 634.25 C112.351875 634.806875 112.57875 635.36375 112.8125 635.9375 C114.50643236 638.92204749 116.64114698 640.87654045 119.125 643.25 C120.39847265 644.51818853 121.66923659 645.78910193 122.9375 647.0625 C123.54207031 647.66707031 124.14664062 648.27164063 124.76953125 648.89453125 C125.21683594 649.34183594 125.66414063 649.78914062 126.125 650.25 C126.56070312 649.87488281 126.99640625 649.49976563 127.4453125 649.11328125 C128.04085938 648.60152344 128.63640625 648.08976563 129.25 647.5625 C129.89195312 647.00949219 130.53390625 646.45648437 131.1953125 645.88671875 C132.81099905 644.51632874 134.46393054 643.19001332 136.125 641.875 C138.48083027 639.81364852 140.37266408 637.88159884 142.38417053 635.51937866 C145.76513943 631.61797476 149.30828062 627.94316397 152.97827148 624.31494141 C153.62302933 623.67325012 154.26778717 623.03155884 154.93208313 622.37042236 C156.31630311 620.99329534 157.70165219 619.61730244 159.08804131 618.24235916 C161.27990232 616.06802426 163.46808367 613.89004689 165.6552887 611.71102905 C171.86870768 605.52196184 178.08789777 599.33871681 184.3112793 593.15966797 C188.12957371 589.36806999 191.9430527 585.57168462 195.75355721 581.77225876 C197.2058167 580.32622141 198.65997259 578.88208609 200.11602592 577.43986893 C202.14103366 575.43395896 204.15991577 573.4220736 206.17749023 571.40869141 C206.78364166 570.81130157 207.38979309 570.21391174 208.01431274 569.59841919 C211.10200488 566.92927317 211.10200488 566.92927317 212.125 563.25 C212.7025 563.0025 213.28 562.755 213.875 562.5 C216.45439979 561.06700012 218.18621592 559.46575324 220.125 557.25 C220.125 556.59 220.125 555.93 220.125 555.25 C220.7025 555.0025 221.28 554.755 221.875 554.5 C224.45439979 553.06700012 226.18621592 551.46575324 228.125 549.25 C228.125 548.59 228.125 547.93 228.125 547.25 C228.7025 547.0025 229.28 546.755 229.875 546.5 C232.45439979 545.06700012 234.18621592 543.46575324 236.125 541.25 C236.125 540.59 236.125 539.93 236.125 539.25 C236.785 539.25 237.445 539.25 238.125 539.25 C241.81628819 535.87510794 245.03409628 532.11105718 248.28125 528.3125 C250.47089024 525.86307194 252.79695117 523.5662138 255.125 521.25 C256.28891266 520.08668292 257.4525028 518.9230431 258.61584473 517.75915527 C281.95528158 494.41971842 305.29471842 471.08028158 328.63415527 447.74084473 C329.23398727 447.1384346 329.83381927 446.53602448 330.451828 445.9153595 C331.51323122 444.85891227 332.58410243 443.81182594 333.66743469 442.77787781 C335.9564045 440.58045555 337.09994122 439.32517633 338.125 436.25 C338.785 436.25 339.445 436.25 340.125 436.25 C341.69148858 434.66262601 341.69148858 434.66262601 343.3125 432.625 C346.2350663 429.16212733 349.28330902 426.27489092 352.83984375 423.4765625 C353.26394531 423.07179688 353.68804688 422.66703125 354.125 422.25 C354.125 421.59 354.125 420.93 354.125 420.25 C354.785 420.25 355.445 420.25 356.125 420.25 C356.681875 419.54875 357.23875 418.8475 357.8125 418.125 C360.2116637 415.14225593 362.7552638 412.95405467 365.734375 410.58203125 C366.19328125 410.14246094 366.6521875 409.70289063 367.125 409.25 C367.125 408.59 367.125 407.93 367.125 407.25 C368.115 406.92 369.105 406.59 370.125 406.25 C370.125 405.59 370.125 404.93 370.125 404.25 C370.785 404.25 371.445 404.25 372.125 404.25 C375.94843721 400.8095444 375.94843721 400.8095444 378.125 396.25 C378.785 396.25 379.445 396.25 380.125 396.25 C381.79166667 394.91666667 381.79166667 394.91666667 383.125 393.25 C383.125 392.59 383.125 391.93 383.125 391.25 C384.115 390.92 385.105 390.59 386.125 390.25 C386.125 389.59 386.125 388.93 386.125 388.25 C386.785 388.25 387.445 388.25 388.125 388.25 C390.63690132 385.93640668 392.86494752 383.59075842 394.9375 380.875 C397.51435747 377.78277103 400.41403683 375.35336568 403.515625 372.80078125 C404.04671875 372.28902344 404.5778125 371.77726562 405.125 371.25 C405.125 370.59 405.125 369.93 405.125 369.25 C405.785 369.25 406.445 369.25 407.125 369.25 C407.125 368.59 407.125 367.93 407.125 367.25 C406.49054616 367.24668985 405.85609232 367.24337971 405.20241261 367.23996925 C389.76195365 367.15873503 374.32160339 367.06664123 358.88128376 366.96247292 C351.41444762 366.91235947 343.9476224 366.86591642 336.48071289 366.828125 C329.97225864 366.79517518 323.46388936 366.75532746 316.95552891 366.70720994 C313.5096713 366.68197462 310.06386983 366.66018464 306.61794472 366.64665604 C302.7703407 366.63142117 298.92294287 366.60078571 295.07543945 366.56884766 C293.93392426 366.56668747 292.79240906 366.56452728 291.61630249 366.56230164 C290.56607407 366.55113815 289.51584564 366.53997467 288.43379211 366.5284729 C287.0690776 366.52017676 287.0690776 366.52017676 285.6767931 366.51171303 C281.10357568 366.04268183 278.65060957 364.78783305 275.4375 361.5 C273.22877132 358.39584077 272.08340054 355.90934752 271.125 352.25 C270.465 352.25 269.805 352.25 269.125 352.25 C269.02316406 351.56550781 268.92132812 350.88101562 268.81640625 350.17578125 C267.98730008 346.66730374 266.6077768 343.69244474 265.0625 340.4375 C264.24072266 338.69533203 264.24072266 338.69533203 263.40234375 336.91796875 C262.98082031 336.03753906 262.55929687 335.15710938 262.125 334.25 C259.77110099 337.78084851 259.07796603 341.17658218 258.1875 345.25 C257.8386821 346.78808827 257.48841984 348.32584969 257.13671875 349.86328125 C256.88027588 350.98790771 256.88027588 350.98790771 256.61865234 352.13525391 C255.35736344 357.53846087 253.92042922 362.89540276 252.14453125 368.15234375 C251.11237374 371.28836255 250.26095014 374.42807593 249.4375 377.625 C245.95158229 390.91463987 241.97831426 404.07470098 238.03515625 417.234375 C233.18362655 433.43551697 233.18362655 433.43551697 229.01171875 449.8203125 C228.33018502 452.45637688 227.57159825 454.96390851 226.6953125 457.53515625 C225.00952154 462.48850668 223.65357307 467.50674098 222.3125 472.5625 C220.03167339 481.05526333 217.60572317 489.49206924 215.04174805 497.90356445 C214.80496338 498.68046631 214.56817871 499.45736816 214.32421875 500.2578125 C214.11627686 500.93473145 213.90833496 501.61165039 213.6940918 502.30908203 C213.0898789 504.27622881 213.0898789 504.27622881 212.66723633 506.42919922 C212.125 508.25 212.125 508.25 210.25 509.375 C209.54875 509.66375 208.8475 509.9525 208.125 510.25 C207.135 510.91 206.145 511.57 205.125 512.25 C199.83033848 512.77946615 196.41689314 512.34872805 191.765625 509.80859375 C187.11712127 505.39251521 185.38132144 499.49522851 184.125 493.39453125 C183.88327057 492.29146889 183.88327057 492.29146889 183.63665771 491.16612244 C183.12136144 488.80054746 182.62294547 486.43178179 182.125 484.0625 C181.77207042 482.42656089 181.41822506 480.79081909 181.06347656 479.15527344 C179.08773108 470.00194549 177.20546753 460.83109935 175.4152832 451.63964844 C174.24291418 445.67240003 172.81965422 439.78481601 171.30859375 433.89453125 C166.91564731 416.75628517 162.92625077 399.52736756 159.125 382.25 C156.59789936 370.76722011 154.00276283 359.3059643 151.25 347.875 C150.96382813 346.68132812 150.67765625 345.48765625 150.3828125 344.2578125 C150.1146875 343.154375 149.8465625 342.0509375 149.5703125 340.9140625 C149.33844238 339.95967285 149.10657227 339.0052832 148.86767578 338.02197266 C148.3376965 336.04387116 147.73542204 334.08456221 147.08618164 332.14233398 C146.31978858 329.8361469 145.73175997 327.68992858 145.30078125 325.30859375 C145.1630127 324.57568115 145.02524414 323.84276855 144.88330078 323.08764648 C144.73618652 322.29559814 144.58907227 321.5035498 144.4375 320.6875 C142.78736049 312.1236784 140.82613685 303.65743841 138.75 295.1875 C135.56330952 282.18219526 132.59979483 269.13731634 129.73974609 256.05664062 C128.87728457 252.1190482 128.00161174 248.18446395 127.125 244.25 C126.465 244.25 125.805 244.25 125.125 244.25 C124.88007813 245.3740625 124.63515625 246.498125 124.3828125 247.65625 C121.12252558 262.38864324 117.47339809 277.01599653 113.77978516 291.64453125 C113.36210813 293.30073169 112.94462548 294.95698117 112.52734375 296.61328125 C112.3240596 297.42002289 112.12077545 298.22676453 111.91133118 299.05795288 C110.36396359 305.22835978 108.88780559 311.41375512 107.46617126 317.61433411 C106.23872814 322.92646453 104.74074067 328.13416872 103.19140625 333.359375 C102.32218029 336.41106953 101.59889505 339.4825835 100.90234375 342.578125 C100.6902124 343.51430664 100.47808105 344.45048828 100.25952148 345.41503906 C99.84578867 347.26354441 99.44244179 349.1144143 99.05102539 350.96777344 C97.66671119 357.13653292 96.19200617 362.23816855 90.63110352 365.88589478 C85.92990926 367.71496902 81.8095453 367.66981228 76.80859375 367.63818359 C75.27091843 367.64606903 75.27091843 367.64606903 73.70217896 367.65411377 C70.32212983 367.6672903 66.94255372 367.65858371 63.5625 367.6484375 C61.20890208 367.6504589 58.85530477 367.65337089 56.50170898 367.65713501 C51.57236764 367.6615552 46.64318954 367.65513695 41.71386719 367.64111328 C35.39876817 367.6240218 29.08405167 367.63386458 22.76896667 367.65183067 C17.90992354 367.66267662 13.05097093 367.65921839 8.19192505 367.6514473 C5.8635351 367.64944754 3.53513691 367.65189665 1.20675659 367.65888596 C-2.04858135 367.66651353 -5.30330174 367.65487723 -8.55859375 367.63818359 C-9.51877411 367.64425629 -10.47895447 367.65032898 -11.4682312 367.65658569 C-16.75944215 367.60637594 -20.21651375 367.02180849 -24.875 364.25 C-25.535 364.25 -26.195 364.25 -26.875 364.25 C-29.50046808 357.77384541 -30.9235638 352.26949456 -29.125 345.375 C-27.61776457 342.81269977 -26.63359226 342.27461998 -23.875 341.25 C-22.84866203 340.73972763 -22.84866203 340.73972763 -21.80158997 340.21914673 C-17.7864401 338.88952098 -14.06605306 338.94193413 -9.86206055 338.93115234 C-8.96400192 338.92110672 -8.0659433 338.9110611 -7.14067078 338.90071106 C-4.18102643 338.86989328 -1.2214725 338.85284774 1.73828125 338.8359375 C3.79380572 338.81722473 5.84932251 338.79765124 7.90483093 338.7772522 C13.30851721 338.72593655 18.71222839 338.68630769 24.11602783 338.64910889 C29.63275307 338.60906577 35.14937476 338.5579748 40.66601562 338.5078125 C51.48560434 338.41105988 62.30525153 338.32665287 73.125 338.25 C73.60735046 336.82454076 74.08782531 335.39844677 74.56752014 333.97209167 C74.83528794 333.17800494 75.10305574 332.38391821 75.37893772 331.56576824 C76.36305319 328.51108579 77.10440081 325.43105278 77.80859375 322.30078125 C78.09669922 321.03943359 78.38480469 319.77808594 78.68164062 318.47851562 C78.97572944 317.17328267 79.26934829 315.86794374 79.5625 314.5625 C81.55195432 305.73289935 83.70587295 297.00958132 86.2434082 288.32055664 C87.29168161 284.66945317 88.1693125 281.01894853 89 277.3125 C90.81541943 269.3715583 92.85286132 261.49519345 94.93115234 253.61938477 C97.3878649 244.30510383 99.76563579 234.98523258 101.84375 225.578125 C102.06260109 224.58888786 102.06260109 224.58888786 102.28587341 223.57966614 C102.88495605 220.86684184 103.48295833 218.15382538 104.07275391 215.43896484 C106.88708071 202.51151615 106.88708071 202.51151615 108.72265625 197.87109375 C110.63739382 192.92691066 111.54030697 187.89826572 112.49804688 182.69726562 C113.46680518 177.9183282 114.58752265 174.82182179 118.125 171.25 C122.13877074 168.90863373 126.58395998 168.2917989 131.125 169.25 C136.25451427 171.94547411 139.34253206 174.67785023 141.125 180.25 C141.85579231 182.98631481 142.49926519 185.73796742 143.125 188.5 C143.29 189.21285156 143.455 189.92570313 143.625 190.66015625 C145.18570232 197.42726397 146.69700138 204.20529156 148.1328125 211 C150.56858142 222.48433024 153.21470691 233.90870769 156 245.3125 C160.58898784 264.11823579 165.14505875 282.9297221 169.19921875 301.859375 C169.37538727 302.68097107 169.55155579 303.50256714 169.73306274 304.34906006 C170.59186313 308.36092902 171.44391333 312.37406135 172.28515625 316.38964844 C173.97272233 324.37698404 175.89930704 332.20236865 178.2121582 340.03808594 C179.58096354 344.85434777 180.61303232 349.72356403 181.625 354.625 C183.038547 361.30114058 184.49075518 367.95226496 186.1875 374.5625 C187.60604205 380.1056382 188.90441279 385.66009016 190.125 391.25 C191.63505035 398.15969103 193.29778193 405.01064753 195.05078125 411.86328125 C195.90251511 415.26459733 196.66978484 418.67992224 197.41796875 422.10546875 C197.63912354 423.1119043 197.86027832 424.11833984 198.08813477 425.15527344 C198.52420661 427.15306478 198.95325876 429.15240325 199.37475586 431.15332031 C199.67265015 432.51408691 199.67265015 432.51408691 199.9765625 433.90234375 C200.15010254 434.71695068 200.32364258 435.53155762 200.50244141 436.37084961 C200.81060791 437.30102905 200.81060791 437.30102905 201.125 438.25 C201.785 438.58 202.445 438.91 203.125 439.25 C205.68900293 430.49098378 208.08479795 421.69291428 210.4375 412.875 C214.20912794 398.77340971 218.26755801 384.76161129 222.46484375 370.78125 C224.80701065 362.95435527 226.96631593 355.10062111 229 347.1875 C231.85147139 336.1047012 235.000155 325.12358774 238.26367188 314.15576172 C239.11772468 311.2745439 239.95861668 308.3897542 240.796875 305.50390625 C241.32259024 303.71084176 241.84861662 301.91786846 242.375 300.125 C242.60896484 299.31393799 242.84292969 298.50287598 243.08398438 297.66723633 C246.19069854 287.18430146 246.19069854 287.18430146 250.125 283.25 C253.05633519 282.28127549 255.92381179 281.99958083 259 281.875 C259.82242187 281.82601563 260.64484375 281.77703125 261.4921875 281.7265625 C265.26817813 282.47727874 267.61205861 284.45862365 270.125 287.25 C271.5972142 289.7046233 272.82398664 291.98057592 274 294.5625 C274.67927701 295.98587305 275.35897725 297.4090442 276.0390625 298.83203125 C276.38098633 299.55986816 276.72291016 300.28770508 277.07519531 301.03759766 C278.7834441 304.63763265 280.58239482 308.19143761 282.375 311.75 C283.31564494 313.62961613 284.25496469 315.50988449 285.19335938 317.390625 C285.81550179 318.63230127 286.44182492 319.8718914 287.07226562 321.109375 C289.06364677 325.03626688 290.93916247 329.0021793 292.75488281 333.01367188 C293.20019348 333.99654175 293.64550415 334.97941162 294.10430908 335.99206543 C294.44113708 336.73718384 294.77796509 337.48230225 295.125 338.25 C313.57941349 338.55425365 332.03331527 338.78320069 350.48972034 338.92355824 C359.06032674 338.99047447 367.62937118 339.08162597 376.19897461 339.23071289 C383.67209869 339.36066171 391.14409141 339.44424215 398.61831397 339.47315043 C402.57328579 339.4900405 406.5250225 339.52945136 410.47895241 339.62449074 C427.37546435 340.90274133 427.37546435 340.90274133 442.4500885 335.41824341 C445.40121648 332.34538694 447.23915193 329.05048731 449.125 325.25 C450.20159303 323.812375 451.3037915 322.39252597 452.45703125 321.015625 C455.5103969 316.84229052 458.1674061 312.43931844 460.8125 308 C461.7520121 306.43115579 462.69335868 304.86340841 463.63671875 303.296875 C464.24713013 302.27352051 464.24713013 302.27352051 464.86987305 301.22949219 C466.125 299.25 466.125 299.25 467.70043945 297.18603516 C469.60960312 294.59140484 470.52612923 291.89689461 471.625 288.875 C472.81081666 285.62920698 473.97721158 282.53205372 475.58178711 279.46972656 C478.03425616 274.35294728 479.25995479 268.90708767 480.65942383 263.43164062 C481.17801756 261.41193022 481.71416353 259.3974836 482.25195312 257.3828125 C486.17517558 242.39453463 487.49640164 227.77524646 487.375 212.3125 C487.37090118 211.56654572 487.36680237 210.82059143 487.36257935 210.05203247 C487.08145669 166.34359679 471.13215659 125.26557592 443.140625 91.6953125 C441.125 89.25 441.125 89.25 439.484375 86.9296875 C438.81148437 86.09824219 438.81148437 86.09824219 438.125 85.25 C437.465 85.25 436.805 85.25 436.125 85.25 C435.87363281 84.66089844 435.62226562 84.07179687 435.36328125 83.46484375 C433.97044599 80.97355798 432.5041428 79.62699586 430.3125 77.8125 C428.01234132 75.87032666 425.85384408 73.9717084 423.75 71.8125 C413.18473685 61.49879073 400.2595387 52.85612014 386.90625 46.6015625 C384.125 45.25 384.125 45.25 380.77734375 43.26953125 C377.06017927 41.1203086 373.24643734 39.68316718 369.1875 38.3125 C368.45023682 38.05944092 367.71297363 37.80638184 366.95336914 37.5456543 C364.68026344 36.7711451 362.40309351 36.00969509 360.125 35.25 C359.43631836 35.01603516 358.74763672 34.78207031 358.03808594 34.54101562 C348.18325176 31.20670915 338.40397863 28.84028507 328.125 27.25 C326.24361328 26.940625 326.24361328 26.940625 324.32421875 26.625 C303.72887935 23.69153919 282.51983794 24.22959733 262.125 28.25 Z " fill="#BB3936" transform="translate(351.875,164.75)"/>
<path d="M0 0 C-24.75 24.75 -49.5 49.5 -75 75 C-75.33 73.68 -75.66 72.36 -76 71 C-75.11248047 70.25556641 -75.11248047 70.25556641 -74.20703125 69.49609375 C-68.7594886 64.83031853 -68.7594886 64.83031853 -64.3125 59.25 C-61.83698042 55.7708914 -59.54912571 54.29214369 -56 52 C-55.04878636 50.94687061 -54.13144669 49.86217832 -53.25 48.75 C-52.5075 47.8425 -51.765 46.935 -51 46 C-50.34 46 -49.68 46 -49 46 C-49 45.34 -49 44.68 -49 44 C-47.84394689 42.80994532 -46.68022298 41.62645248 -45.48046875 40.48046875 C-43.93643404 38.93643404 -42.57194999 37.31289109 -41.1875 35.625 C-39.12064363 33.1815073 -36.99799434 31.06610031 -34.546875 29.01171875 C-29.33240241 24.50371538 -24.48562804 19.63596796 -19.62475586 14.75512695 C-18.04460356 13.16954204 -16.45908024 11.58946558 -14.87304688 10.00976562 C-13.86426194 9.00032108 -12.85578662 7.99056701 -11.84765625 6.98046875 C-10.94023682 6.07192139 -10.03281738 5.16337402 -9.09790039 4.22729492 C-6.97253466 2.18483415 -6.97253466 2.18483415 -6 0 C-3 -1 -3 -1 0 0 Z " fill="#A03939" transform="translate(736,599)"/>
<path d="M0 0 C0.99 0.33 1.98 0.66 3 1 C-18 22 -18 22 -20.53173828 24.52954102 C-22.88446078 26.88435793 -25.23032388 29.24577515 -27.57421875 31.609375 C-29.27858229 33.32297987 -30.9830111 35.03651982 -32.6875 36.75 C-33.55439453 37.62527344 -34.42128906 38.50054688 -35.31445312 39.40234375 C-36.14267578 40.23378906 -36.97089844 41.06523438 -37.82421875 41.921875 C-38.57791748 42.68081055 -39.33161621 43.43974609 -40.1081543 44.22167969 C-44.10177149 47.97564893 -48.40579513 47.45264718 -53.671875 47.40625 C-58.78884175 46.78164373 -61.45101811 44.5722285 -65 41 C-65.67289062 40.35417969 -66.34578125 39.70835937 -67.0390625 39.04296875 C-68.72750854 37.39152053 -70.37642572 35.71490033 -72 34 C-70.02 33.505 -70.02 33.505 -68 33 C-66.9171875 34.3921875 -66.9171875 34.3921875 -65.8125 35.8125 C-63.5099859 38.60840998 -61.15244118 40.19860504 -58 42 C-58 42.66 -58 43.32 -58 44 C-55.89646505 44.0810206 -53.79204048 44.13919907 -51.6875 44.1875 C-50.51574219 44.22230469 -49.34398437 44.25710938 -48.13671875 44.29296875 C-44.67057315 43.96923161 -44.15581908 43.52728329 -42 41 C-41.01 41 -40.02 41 -39 41 C-39 39.35 -39 37.7 -39 36 C-37.35 36 -35.7 36 -34 36 C-34 34.35 -34 32.7 -34 31 C-33.236875 30.7525 -32.47375 30.505 -31.6875 30.25 C-28.72509328 28.87213641 -27.88592499 27.5717159 -26 25 C-25.01 25 -24.02 25 -23 25 C-22.731875 24.236875 -22.46375 23.47375 -22.1875 22.6875 C-21.04204753 20.09516021 -20.23584819 18.69924463 -18 17 C-17.01 17 -16.02 17 -15 17 C-14.67 15.68 -14.34 14.36 -14 13 C-13.34 13 -12.68 13 -12 13 C-12 12.34 -12 11.68 -12 11 C-11.34 11 -10.68 11 -10 11 C-9.67 10.01 -9.34 9.02 -9 8 C-8.34 8 -7.68 8 -7 8 C-7 7.01 -7 6.02 -7 5 C-6.401875 4.731875 -5.80375 4.46375 -5.1875 4.1875 C-3.02775192 3.01506533 -1.64209744 1.80630718 0 0 Z " fill="#A13F3F" transform="translate(530,802)"/>
<path d="M0 0 C2.35171131 0.59861742 4.6859378 1.26924352 7 2 C7.33 2.66 7.66 3.32 8 4 C8.66 4.33 9.32 4.66 10 5 C10 6.32 10 7.64 10 9 C10.556875 9.20625 11.11375 9.4125 11.6875 9.625 C14.28942433 11.17209014 15.79179771 13.0741338 17.65234375 15.4296875 C19.14890936 17.26253854 19.14890936 17.26253854 21.9375 19.4375 C24.83771985 21.86421457 27.02703041 24.32899723 29.41015625 27.23046875 C31.60162291 29.6696196 34.08710665 31.64287872 36.6796875 33.640625 C38 35 38 35 38 38 C38.928125 38.185625 38.928125 38.185625 39.875 38.375 C42 39 42 39 44 41 C43.625 43.125 43.625 43.125 43 45 C37.3876375 39.43390707 31.78064359 33.86248533 26.18048859 28.28411293 C23.58015198 25.69422903 20.97798129 23.10624457 18.37158203 20.52246094 C15.85796836 18.03052274 13.34922241 15.53377982 10.84382629 13.03358078 C9.88545233 12.07891212 8.92531522 11.12601018 7.96342468 10.1748848 C6.62009843 8.84600255 5.28350662 7.51032293 3.94726562 6.17431641 C3.18337524 5.41486725 2.41948486 4.65541809 1.63244629 3.87295532 C0 2 0 2 0 0 Z " fill="#A83D3A" transform="translate(400,776)"/>
<path d="M0 0 C-2 2 -2 2 -4.44241333 2.24050903 C-5.98129715 2.2338472 -5.98129715 2.2338472 -7.55126953 2.22705078 C-9.29284836 2.22682419 -9.29284836 2.22682419 -11.0696106 2.22659302 C-12.32796722 2.21627045 -13.58632385 2.20594788 -14.8828125 2.1953125 C-16.16735321 2.1924826 -17.45189392 2.18965271 -18.77536011 2.18673706 C-22.19162767 2.17909809 -25.60772537 2.15944752 -29.02392578 2.1373291 C-32.50941673 2.11687624 -35.9949351 2.10773655 -39.48046875 2.09765625 C-46.32038231 2.07620175 -53.160183 2.04206271 -60 2 C-57.44062653 -0.55937347 -56.43667015 -0.27306475 -52.87939453 -0.3347168 C-51.27730637 -0.36936287 -51.27730637 -0.36936287 -49.64285278 -0.40470886 C-48.48453949 -0.41939713 -47.3262262 -0.43408539 -46.1328125 -0.44921875 C-44.94654266 -0.47095657 -43.76027283 -0.4926944 -42.53805542 -0.51509094 C-40.02463369 -0.55907247 -37.51112422 -0.59825737 -34.99755859 -0.63305664 C-31.1478259 -0.6871791 -27.2986409 -0.75738708 -23.44921875 -0.83007812 C-21.01043242 -0.8707476 -18.57163045 -0.91049177 -16.1328125 -0.94921875 C-14.97854767 -0.96997971 -13.82428284 -0.99074066 -12.63504028 -1.01213074 C-11.02349564 -1.03259209 -11.02349564 -1.03259209 -9.37939453 -1.0534668 C-7.96281052 -1.07439644 -7.96281052 -1.07439644 -6.51760864 -1.0957489 C-4.18387449 -1.00699306 -2.23011224 -0.66571217 0 0 Z " fill="#A93A37" transform="translate(860,531)"/>
<path d="M0 0 C5.75 4.75 5.75 4.75 8 7 C8 7.99 8 8.98 8 10 C9.32 10 10.64 10 12 10 C12 11.32 12 12.64 12 14 C12.66 14 13.32 14 14 14 C14.33 15.32 14.66 16.64 15 18 C15.99 18 16.98 18 18 18 C19.5625 19.4375 19.5625 19.4375 21 21 C21.66 21.33 22.32 21.66 23 22 C22.67 22.99 22.34 23.98 22 25 C23.65 25.33 25.3 25.66 27 26 C27.33 26.99 27.66 27.98 28 29 C28.66 29.33 29.32 29.66 30 30 C29.67 31.32 29.34 32.64 29 34 C25.38548021 30.41033936 21.77436476 26.81729977 18.16625977 23.22119141 C16.94028485 22.00022179 15.71341094 20.78015412 14.4855957 19.56103516 C12.71324009 17.80091261 10.94422392 16.03749043 9.17578125 14.2734375 C8.63286942 13.73568695 8.08995758 13.1979364 7.53059387 12.64389038 C4.13570556 9.24949503 1.02350522 5.72988599 -2 2 C-1.34 2 -0.68 2 0 2 C0 1.34 0 0.68 0 0 Z " fill="#983A37" transform="translate(286,658)"/>
<path d="M0 0 C2.375 0.25 2.375 0.25 5 1 C5.69937532 2.31647119 6.36729133 3.65022151 7 5 C7.598125 5.12375 8.19625 5.2475 8.8125 5.375 C12.32042408 6.37726402 13.79576137 9.21569857 16 12 C16.66 12.33 17.32 12.66 18 13 C18 13.99 18 14.98 18 16 C18.66 16 19.32 16 20 16 C20 16.66 20 17.32 20 18 C20.99 18.33 21.98 18.66 23 19 C23 19.66 23 20.32 23 21 C24.32 21.33 25.64 21.66 27 22 C27 23.32 27 24.64 27 26 C27.66 26 28.32 26 29 26 C28.67 26.99 28.34 27.98 28 29 C24.00920662 25.03384583 20.02164801 21.06447889 16.03710938 17.09204102 C14.67993134 15.73990523 13.321859 14.38866647 11.96289062 13.03833008 C10.01459127 11.10210109 8.06948531 9.16271454 6.125 7.22265625 C5.51253418 6.61535172 4.90006836 6.00804718 4.26904297 5.38233948 C2.82692511 3.94041592 1.41053404 2.47283441 0 1 C0 0.67 0 0.34 0 0 Z " fill="#A6413D" transform="translate(181,555)"/>
<path d="M0 0 C1.98 0.66 3.96 1.32 6 2 C6 2.66 6 3.32 6 4 C7.32 4.66 8.64 5.32 10 6 C10 6.66 10 7.32 10 8 C10.99 8.33 11.98 8.66 13 9 C13.33 9.99 13.66 10.98 14 12 C14.66 12 15.32 12 16 12 C16 12.66 16 13.32 16 14 C16.66 14 17.32 14 18 14 C18 14.66 18 15.32 18 16 C18.61875 16.28875 19.2375 16.5775 19.875 16.875 C22 18 22 18 24 20 C24.66 20.33 25.32 20.66 26 21 C26 21.99 26 22.98 26 24 C26.66 24 27.32 24 28 24 C27.67 24.99 27.34 25.98 27 27 C20.83626579 21.90160256 15.20402299 16.35339242 9.5625 10.6875 C8.64017578 9.76904297 7.71785156 8.85058594 6.76757812 7.90429688 C5.89681641 7.03224609 5.02605469 6.16019531 4.12890625 5.26171875 C3.33556885 4.46725342 2.54223145 3.67278809 1.72485352 2.85424805 C0 1 0 1 0 0 Z " fill="#A7413D" transform="translate(248,623)"/>
<path d="M0 0 C2.12280273 0.40771484 2.12280273 0.40771484 4 1 C3.45996338 1.5347998 2.91992676 2.06959961 2.36352539 2.62060547 C-0.07274376 5.03613706 -2.50516107 7.45551117 -4.9375 9.875 C-5.78763672 10.71675781 -6.63777344 11.55851563 -7.51367188 12.42578125 C-8.32255859 13.23144531 -9.13144531 14.03710938 -9.96484375 14.8671875 C-10.7137085 15.61081543 -11.46257324 16.35444336 -12.23413086 17.12060547 C-14.06297703 18.8871676 -14.06297703 18.8871676 -15 21 C-15.66 21 -16.32 21 -17 21 C-17 21.66 -17 22.32 -17 23 C-17.66 23 -18.32 23 -19 23 C-19.33 23.99 -19.66 24.98 -20 26 C-20.33 26 -20.66 26 -21 26 C-21 24.35 -21 22.7 -21 21 C-20.01 20.67 -19.02 20.34 -18 20 C-17.67 19.01 -17.34 18.02 -17 17 C-16.34 17 -15.68 17 -15 17 C-14.773125 16.443125 -14.54625 15.88625 -14.3125 15.3125 C-12.61427198 12.32038397 -10.49235804 10.38399465 -8 8 C-7.35160156 7.29617188 -6.70320312 6.59234375 -6.03515625 5.8671875 C-5.34292969 5.12726562 -4.65070312 4.38734375 -3.9375 3.625 C-3.28652344 2.91601562 -2.63554688 2.20703125 -1.96484375 1.4765625 C-1.31644531 0.98929688 -0.66804687 0.50203125 0 0 Z " fill="#AF3F40" transform="translate(656,674)"/>
<path d="M0 0 C11.82758621 9.65517241 11.82758621 9.65517241 15 16 C13.02 16 11.04 16 9 16 C8.67 15.34 8.34 14.68 8 14 C6.35636866 13.27840576 4.68949614 12.60648579 3 12 C3 11.34 3 10.68 3 10 C2.34 10 1.68 10 1 10 C0.67 8.02 0.34 6.04 0 4 C-0.66 4 -1.32 4 -2 4 C-2 3.34 -2 2.68 -2 2 C-1.34 2 -0.68 2 0 2 C0 1.34 0 0.68 0 0 Z " fill="#B13A39" transform="translate(800,219)"/>
<path d="M0 0 C0 0.33 0 0.66 0 1 C-7.92 1 -15.84 1 -24 1 C-24.66 2.32 -25.32 3.64 -26 5 C-27.65 5 -29.3 5 -31 5 C-30.67 4.01 -30.34 3.02 -30 2 C-33.63 2 -37.26 2 -41 2 C-41.33 2.99 -41.66 3.98 -42 5 C-42 4.34 -42 3.68 -42 3 C-44.64 3 -47.28 3 -50 3 C-50 2.67 -50 2.34 -50 2 C-33.34555915 -0.376175 -16.77944503 -0.2093204 0 0 Z " fill="#983433" transform="translate(665,161)"/>
<path d="M0 0 C0.99 0.33 1.98 0.66 3 1 C3 1.66 3 2.32 3 3 C3.66 3 4.32 3 5 3 C5 3.66 5 4.32 5 5 C6.32 5.33 7.64 5.66 9 6 C9 6.66 9 7.32 9 8 C9.99 8.33 10.98 8.66 12 9 C12.6875 11.0625 12.6875 11.0625 13 13 C13.66 13 14.32 13 15 13 C16.625 14.5 16.625 14.5 18 16 C17.67 15.01 17.34 14.02 17 13 C17.99 13.33 18.98 13.66 20 14 C19.67 15.65 19.34 17.3 19 19 C19.66 19 20.32 19 21 19 C21.33 20.65 21.66 22.3 22 24 C17.48417961 20.31361601 13.60595742 16.53999513 9.84375 12.09375 C7.22314034 9.11780344 4.37375256 6.39776809 1.50390625 3.6640625 C0 2 0 2 0 0 Z " fill="#A4433F" transform="translate(211,584)"/>
<path d="M0 0 C4.50727647 0.60266785 7.8587963 2.36599794 11.8125 4.5625 C12.7087207 5.0565332 12.7087207 5.0565332 13.62304688 5.56054688 C15.08533998 6.36773267 16.5431399 7.18304917 18 8 C17.34 8.66 16.68 9.32 16 10 C15.01 9.67 14.02 9.34 13 9 C13 8.34 13 7.68 13 7 C9.31733897 7.59950296 5.65456815 8.24758891 2 9 C2 7.68 2 6.36 2 5 C1.34 5 0.68 5 0 5 C0 3.35 0 1.7 0 0 Z " fill="#A93635" transform="translate(398,181)"/>
<path d="M0 0 C0.99 0 1.98 0 3 0 C3 1.32 3 2.64 3 4 C4.32 4 5.64 4 7 4 C7 5.32 7 6.64 7 8 C8.32 8 9.64 8 11 8 C11 8.99 11 9.98 11 11 C11.66 11 12.32 11 13 11 C13 11.99 13 12.98 13 14 C14.32 14.33 15.64 14.66 17 15 C17 15.66 17 16.32 17 17 C17.66 17 18.32 17 19 17 C18.67 17.99 18.34 18.98 18 20 C13.49363583 16.29476724 9.23133856 12.38973054 5.0625 8.3125 C4.56580811 7.83707764 4.06911621 7.36165527 3.55737305 6.87182617 C2.3119864 5.63862573 1.14896899 4.32349593 0 3 C0 2.01 0 1.02 0 0 Z " fill="#A13A37" transform="translate(381,756)"/>
<path d="M0 0 C-1.46032495 5.31027254 -3.98320986 9.46330032 -7 14 C-9 11 -9 11 -8.6875 8.9375 C-8 7 -8 7 -7 5 C-7.66 5 -8.32 5 -9 5 C-9 3.68 -9 2.36 -9 1 C-8.01 1.495 -8.01 1.495 -7 2 C-4 0 -4 0 0 0 Z " fill="#AE3333" transform="translate(842,480)"/>
<path d="M0 0 C3.60654039 2.40436026 3.85452932 3.94679607 5 8 C6.32 8 7.64 8 9 8 C8.67 10.64 8.34 13.28 8 16 C7.01 16.33 6.02 16.66 5 17 C3.96724659 14.73392948 2.94866449 12.46318061 1.9375 10.1875 C1.49567383 9.22360352 1.49567383 9.22360352 1.04492188 8.24023438 C-1.11328125 3.33984375 -1.11328125 3.33984375 0 0 Z " fill="#A63537" transform="translate(110,457)"/>
<path d="M0 0 C2.475 0.495 2.475 0.495 5 1 C5 2.32 5 3.64 5 5 C6.65 5.33 8.3 5.66 10 6 C10 6.99 10 7.98 10 9 C10.99 9.33 11.98 9.66 13 10 C13.33 11.98 13.66 13.96 14 16 C10.25678983 12.86792618 6.58550652 9.69171033 3.0625 6.3125 C2.47597656 5.75175781 1.88945312 5.19101562 1.28515625 4.61328125 C0 3 0 3 0 0 Z " fill="#9D3735" transform="translate(365,740)"/>
<path d="M0 0 C1.32 0.33 2.64 0.66 4 1 C4 1.66 4 2.32 4 3 C4.66 3 5.32 3 6 3 C6.66 3.66 7.32 4.32 8 5 C8.680625 5.61875 9.36125 6.2375 10.0625 6.875 C12.02290988 9.02512696 12.59615776 10.17310431 13 13 C13.99 13 14.98 13 16 13 C16 13.99 16 14.98 16 16 C16.66 16 17.32 16 18 16 C18.66 17.32 19.32 18.64 20 20 C16.7731002 18.57937485 14.60057488 16.85754559 12.109375 14.375 C11.04589844 13.31539062 11.04589844 13.31539062 9.9609375 12.234375 C9.23132813 11.49703125 8.50171875 10.7596875 7.75 10 C7.00492188 9.26265625 6.25984375 8.5253125 5.4921875 7.765625 C4.78835937 7.05921875 4.08453125 6.3528125 3.359375 5.625 C2.71452148 4.97789062 2.06966797 4.33078125 1.40527344 3.6640625 C0 2 0 2 0 0 Z " fill="#AE403F" transform="translate(148,520)"/>
<path d="M0 0 C1.875 0.3125 1.875 0.3125 4 1 C4.66 1.99 5.32 2.98 6 4 C6.99 4.33 7.98 4.66 9 5 C9 5.66 9 6.32 9 7 C9.66 7 10.32 7 11 7 C11.99 8.485 11.99 8.485 13 10 C13.99 10.33 14.98 10.66 16 11 C16 11.99 16 12.98 16 14 C15.01 14.33 14.02 14.66 13 15 C10.82722286 12.88094537 8.66173092 10.75527122 6.5 8.625 C5.87996094 8.02171875 5.25992187 7.4184375 4.62109375 6.796875 C4.03457031 6.21679688 3.44804687 5.63671875 2.84375 5.0390625 C2.29912109 4.50490723 1.75449219 3.97075195 1.19335938 3.42041016 C0 2 0 2 0 0 Z " fill="#A63D3A" transform="translate(324,699)"/>
<path d="M0 0 C3.06290797 0.30858158 6.12523952 0.62256293 9.1875 0.9375 C10.05181641 1.02451172 10.91613281 1.11152344 11.80664062 1.20117188 C15.9203025 1.6267231 19.96211191 2.07203814 24 3 C22 5 22 5 20.12060547 5.22705078 C19.37697754 5.21657715 18.63334961 5.20610352 17.8671875 5.1953125 C17.06152344 5.18886719 16.25585938 5.18242187 15.42578125 5.17578125 C14.58402344 5.15902344 13.74226562 5.14226562 12.875 5.125 C11.60076172 5.11146484 11.60076172 5.11146484 10.30078125 5.09765625 C8.20040116 5.07405647 6.10016556 5.03818483 4 5 C4.66 4.34 5.32 3.68 6 3 C3.03 2.505 3.03 2.505 0 2 C0 1.34 0 0.68 0 0 Z " fill="#9C3333" transform="translate(667,161)"/>
<path d="M0 0 C-5.28 5.28 -10.56 10.56 -16 16 C-16.33 15.01 -16.66 14.02 -17 13 C-15.7121669 11.51749445 -14.41960936 10.03909182 -13.125 8.5625 C-12.40570312 7.73878906 -11.68640625 6.91507813 -10.9453125 6.06640625 C-9 4 -9 4 -7 3 C-6.67 2.01 -6.34 1.02 -6 0 C-3 -1 -3 -1 0 0 Z " fill="#943437" transform="translate(601,735)"/>
<path d="M0 0 C0.66 0.66 1.32 1.32 2 2 C-3.94 7.94 -9.88 13.88 -16 20 C-16.33 18.68 -16.66 17.36 -17 16 C-16.071875 15.87625 -16.071875 15.87625 -15.125 15.75 C-12.81562433 15.18741541 -12.81562433 15.18741541 -11.75 12.9375 C-11.5025 12.298125 -11.255 11.65875 -11 11 C-10.34 11 -9.68 11 -9 11 C-9 10.34 -9 9.68 -9 9 C-8.34 9 -7.68 9 -7 9 C-7 8.34 -7 7.68 -7 7 C-6.34 7 -5.68 7 -5 7 C-5 6.34 -5 5.68 -5 5 C-4.34 5 -3.68 5 -3 5 C-2.87625 4.360625 -2.7525 3.72125 -2.625 3.0625 C-2.41875 2.381875 -2.2125 1.70125 -2 1 C-1.34 0.67 -0.68 0.34 0 0 Z " fill="#973437" transform="translate(582,750)"/>
<path d="M0 0 C0.33 0.66 0.66 1.32 1 2 C-3.06651398 6.89252463 -7.27810956 11.21566665 -12.1328125 15.32421875 C-14.74410307 17.66782472 -16.84376271 20.23732097 -19 23 C-19.66 22.67 -20.32 22.34 -21 22 C-20.01 20.515 -20.01 20.515 -19 19 C-18.34 19 -17.68 19 -17 19 C-16.61328125 18.12601563 -16.61328125 18.12601563 -16.21875 17.234375 C-14.90165983 14.8197097 -13.44911616 13.18259823 -11.5 11.25 C-10.8915625 10.63640625 -10.283125 10.0228125 -9.65625 9.390625 C-8 8 -8 8 -6 8 C-5.67 7.01 -5.34 6.02 -5 5 C-4.34 5 -3.68 5 -3 5 C-3 4.34 -3 3.68 -3 3 C-2.34 3 -1.68 3 -1 3 C-0.67 2.01 -0.34 1.02 0 0 Z " fill="#CB4542" transform="translate(709,582)"/>
<path d="M0 0 C1.46067199 0.45082469 2.91848032 0.91093537 4.375 1.375 C5.18710937 1.63023437 5.99921875 1.88546875 6.8359375 2.1484375 C9 3 9 3 11 5 C9.75 6.5 9.75 6.5 8 8 C6.68 8 5.36 8 4 8 C4 7.34 4 6.68 4 6 C2.68 5.67 1.36 5.34 0 5 C0.66 4.67 1.32 4.34 2 4 C1.34 3.67 0.68 3.34 0 3 C0 2.01 0 1.02 0 0 Z " fill="#A93535" transform="translate(385,175)"/>
<path d="M0 0 C1 3 1 3 0.4375 5.375 C-1.48760067 8.89040122 -3.81886781 10.57957333 -7 13 C-7 9.44929703 -6.89646896 7.08271597 -4.58984375 4.296875 C-4.04457031 3.78640625 -3.49929688 3.2759375 -2.9375 2.75 C-2.38964844 2.22921875 -1.84179688 1.7084375 -1.27734375 1.171875 C-0.64505859 0.59179688 -0.64505859 0.59179688 0 0 Z " fill="#A43635" transform="translate(753,575)"/>
<path d="M0 0 C2.375 0.25 2.375 0.25 5 1 C5.69937532 2.31647119 6.36729133 3.65022151 7 5 C7.639375 5.12375 8.27875 5.2475 8.9375 5.375 C11 6 11 6 12.75 9.0625 C13.1625 10.031875 13.575 11.00125 14 12 C11 12 11 12 8.30078125 9.62890625 C7.29691517 8.61440318 6.30108274 7.59190164 5.3125 6.5625 C4.80138672 6.04623047 4.29027344 5.52996094 3.76367188 4.99804688 C0 1.15397613 0 1.15397613 0 0 Z " fill="#953C38" transform="translate(181,555)"/>
<path d="M0 0 C1 3 1 3 -0.1875 5.625 C-2.1979755 8.25941618 -2.86173062 8.49382752 -6 9 C-6.66 9.66 -7.32 10.32 -8 11 C-8.99 10.01 -9.98 9.02 -11 8 C-9.5433323 6.85204994 -8.08461063 5.70670581 -6.625 4.5625 C-5.40683594 3.60537109 -5.40683594 3.60537109 -4.1640625 2.62890625 C-2 1 -2 1 0 0 Z " fill="#A73432" transform="translate(528,198)"/>
<path d="M0 0 C1.17539996 0.92652701 2.34010577 1.86663387 3.5 2.8125 C4.1496875 3.33457031 4.799375 3.85664062 5.46875 4.39453125 C7 6 7 6 7 9 C8.32 9.33 9.64 9.66 11 10 C11 11.32 11 12.64 11 14 C6.81576108 10.49102731 2.80411834 6.91939465 -1 3 C-0.67 2.01 -0.34 1.02 0 0 Z " fill="#B03E3B" transform="translate(447,821)"/>
<path d="M0 0 C0.99 0 1.98 0 3 0 C1.38989473 4.07376031 -1.53822271 6.76507069 -4.625 9.75 C-5.140625 10.25660156 -5.65625 10.76320313 -6.1875 11.28515625 C-7.45383339 12.52803902 -8.7263144 13.76465276 -10 15 C-10.33 14.01 -10.66 13.02 -11 12 C-10.34 12 -9.68 12 -9 12 C-8.34 10.68 -7.68 9.36 -7 8 C-6.34 8 -5.68 8 -5 8 C-4.731875 7.4225 -4.46375 6.845 -4.1875 6.25 C-2.9611378 3.92636635 -1.75156566 1.96175354 0 0 Z " fill="#953A3E" transform="translate(544,787)"/>
<path d="M0 0 C0.99 0.33 1.98 0.66 3 1 C-1.95 5.95 -6.9 10.9 -12 16 C-12.33 15.01 -12.66 14.02 -13 13 C-11.68 12.34 -10.36 11.68 -9 11 C-9 10.34 -9 9.68 -9 9 C-8.34 9 -7.68 9 -7 9 C-7 8.34 -7 7.68 -7 7 C-6.34 7 -5.68 7 -5 7 C-5 6.34 -5 5.68 -5 5 C-4.34 5 -3.68 5 -3 5 C-3 4.34 -3 3.68 -3 3 C-2.34 3 -1.68 3 -1 3 C-0.67 2.01 -0.34 1.02 0 0 Z " fill="#8C3539" transform="translate(562,770)"/>
<path d="M0 0 C0.66 0.33 1.32 0.66 2 1 C-2.46351289 6.22325977 -7.0744893 11.20922972 -12 16 C-12.66 15.67 -13.32 15.34 -14 15 C-13.67 14.34 -13.34 13.68 -13 13 C-12.34 13 -11.68 13 -11 13 C-10.67 12.01 -10.34 11.02 -10 10 C-9.34 10 -8.68 10 -8 10 C-8 9.34 -8 8.68 -8 8 C-6.625 6.375 -6.625 6.375 -5 5 C-4.34 5 -3.68 5 -3 5 C-2.690625 4.360625 -2.38125 3.72125 -2.0625 3.0625 C-1 1 -1 1 0 0 Z " fill="#C6413E" transform="translate(743,548)"/>
<path d="M0 0 C4.00180712 1.77858094 6.76459712 3.15013949 9 7 C9 7.66 9 8.32 9 9 C8.01 9.33 7.02 9.66 6 10 C6 9.34 6 8.68 6 8 C3.69 8 1.38 8 -1 8 C-1 7.34 -1 6.68 -1 6 C-0.01 5.34 0.98 4.68 2 4 C1.34 2.68 0.68 1.36 0 0 Z " fill="#9B3A36" transform="translate(858,504)"/>
<path d="M0 0 C3.96 1.98 7.92 3.96 12 6 C11.67 6.66 11.34 7.32 11 8 C8.9375 8.625 8.9375 8.625 7 9 C7 8.34 7 7.68 7 7 C6.401875 6.71125 5.80375 6.4225 5.1875 6.125 C3 5 3 5 0 3 C0 2.01 0 1.02 0 0 Z " fill="#A23736" transform="translate(754,186)"/>
<path d="M0 0 C-0.66 1.65 -1.32 3.3 -2 5 C-4.31 5.33 -6.62 5.66 -9 6 C-9.33 5.34 -9.66 4.68 -10 4 C-10.99 3.67 -11.98 3.34 -13 3 C-11.2092015 2.49689942 -9.41733089 1.99761372 -7.625 1.5 C-6.62726562 1.2215625 -5.62953125 0.943125 -4.6015625 0.65625 C-2 0 -2 0 0 0 Z " fill="#B43733" transform="translate(594,168)"/>
<path d="M0 0 C1.98 0.66 3.96 1.32 6 2 C6 2.66 6 3.32 6 4 C7.32 4.66 8.64 5.32 10 6 C10 6.66 10 7.32 10 8 C10.99 8.33 11.98 8.66 13 9 C12.01 9.66 11.02 10.32 10 11 C8.33035479 9.35718838 6.6643536 7.71067239 5 6.0625 C4.071875 5.14597656 3.14375 4.22945312 2.1875 3.28515625 C0 1 0 1 0 0 Z " fill="#A33C39" transform="translate(248,623)"/>
<path d="M0 0 C0.66 0.33 1.32 0.66 2 1 C1.67 1.66 1.34 2.32 1 3 C0.01 2.67 -0.98 2.34 -2 2 C-1.34 1.34 -0.68 0.68 0 0 Z M-4 3 C-3.34 3.33 -2.68 3.66 -2 4 C-3.1875 6.4375 -3.1875 6.4375 -5 9 C-7.6875 9.8125 -7.6875 9.8125 -10 10 C-10 9.34 -10 8.68 -10 8 C-8.04072937 6.2856382 -6.04119788 4.61594832 -4 3 Z M-12 10 C-11.34 10.33 -10.68 10.66 -10 11 C-11.65 12.65 -13.3 14.3 -15 16 C-15.66 15.67 -16.32 15.34 -17 15 C-15.35 13.35 -13.7 11.7 -12 10 Z " fill="#E4635C" transform="translate(540,225)"/>
<path d="M0 0 C4 1.33333333 8 2.66666667 12 4 C11.67 4.66 11.34 5.32 11 6 C10.236875 5.814375 9.47375 5.62875 8.6875 5.4375 C5.91032625 4.77180827 5.91032625 4.77180827 3 6 C0.8125 5.0625 0.8125 5.0625 -1 4 C-0.67 2.68 -0.34 1.36 0 0 Z " fill="#9F3536" transform="translate(729,175)"/>
<path d="M0 0 C0.99 0.33 1.98 0.66 3 1 C3.33 3.64 3.66 6.28 4 9 C4.66 8.67 5.32 8.34 6 8 C6.66 9.65 7.32 11.3 8 13 C6.02 13.99 6.02 13.99 4 15 C3.32532438 13.25307205 2.66055844 11.50231475 2 9.75 C1.62875 8.77546875 1.2575 7.8009375 0.875 6.796875 C0 4 0 4 0 0 Z " fill="#9B3536" transform="translate(104,442)"/>
<path d="M0 0 C0.33 2.97 0.66 5.94 1 9 C-0.65 9 -2.3 9 -4 9 C-4.75 6.75 -4.75 6.75 -5 4 C-1.75675676 0 -1.75675676 0 0 0 Z " fill="#A53836" transform="translate(863,327)"/>
<path d="M0 0 C1.32 0.66 2.64 1.32 4 2 C3.125 5.875 3.125 5.875 2 7 C0.00041636 7.04080783 -2.00045254 7.04254356 -4 7 C-2.68 4.69 -1.36 2.38 0 0 Z " fill="#AE3434" transform="translate(135,251)"/>
<path d="M0 0 C1.37562854 1.28965176 2.70766393 2.62689293 4 4 C4 4.66 4 5.32 4 6 C4.66 6 5.32 6 6 6 C6 7.65 6 9.3 6 11 C5.34 10.67 4.68 10.34 4 10 C4 9.34 4 8.68 4 8 C3.34 8 2.68 8 2 8 C2 7.34 2 6.68 2 6 C0.68 5.34 -0.64 4.68 -2 4 C-1.34 3.67 -0.68 3.34 0 3 C0 2.01 0 1.02 0 0 Z " fill="#963733" transform="translate(356,728)"/>
<path d="M0 0 C1.32 0 2.64 0 4 0 C5.73473712 1.94125344 7.4045651 3.94272868 9 6 C9.66 6.33 10.32 6.66 11 7 C10.67 7.99 10.34 8.98 10 10 C2.51708428 3.84965831 2.51708428 3.84965831 0 0 Z " fill="#A13E3B" transform="translate(458,835)"/>
<path d="M0 0 C3 1 3 1 4.6875 3.9375 C6 7 6 7 6 9 C3.28071483 8.62492618 2.15781339 8.15781339 0.1875 6.1875 C-1 4 -1 4 -0.6875 1.75 C-0.460625 1.1725 -0.23375 0.595 0 0 Z " fill="#A83834" transform="translate(842,277)"/>
<path d="M0 0 C0.99 0.33 1.98 0.66 3 1 C-0.3 4.3 -3.6 7.6 -7 11 C-7.33 10.01 -7.66 9.02 -8 8 C-5.36 5.36 -2.72 2.72 0 0 Z " fill="#873134" transform="translate(617,715)"/>
<path d="M0 0 C1.32 0 2.64 0 4 0 C4.66 1.65 5.32 3.3 6 5 C6.66 4.67 7.32 4.34 8 4 C10 7 10 7 10 10 C5.86360664 8.40907948 2.76786752 5.39525082 0 2 C0 1.34 0 0.68 0 0 Z " fill="#B3433E" transform="translate(340,715)"/>
<path d="M0 0 C1.22617893 4.90471574 0.8878201 6.43743663 -1.5625 10.75 C-2.036875 11.4925 -2.51125 12.235 -3 13 C-3.99 12.34 -4.98 11.68 -6 11 C-4.02 7.37 -2.04 3.74 0 0 Z " fill="#9F3435" transform="translate(120,275)"/>
<path d="M0 0 C-0.33 1.98 -0.66 3.96 -1 6 C-2.32 6 -3.64 6 -5 6 C-5 3 -5 3 -3.625 1.3125 C-2 0 -2 0 0 0 Z M-6 8 C-5.67 8.99 -5.34 9.98 -5 11 C-5.66 11 -6.32 11 -7 11 C-6.67 10.01 -6.34 9.02 -6 8 Z " fill="#AB3431" transform="translate(511,212)"/>
<path d="M0 0 C2.97 0.495 2.97 0.495 6 1 C6.33 2.32 6.66 3.64 7 5 C5.35 5.66 3.7 6.32 2 7 C2 5.68 2 4.36 2 3 C1.01 2.67 0.02 2.34 -1 2 C-0.67 1.34 -0.34 0.68 0 0 Z " fill="#A03533" transform="translate(714,170)"/>
<path d="M0 0 C0.99 0.33 1.98 0.66 3 1 C0.03 3.97 -2.94 6.94 -6 10 C-6.66 9.34 -7.32 8.68 -8 8 C-5.6166139 4.85052551 -3.44915025 2.0027324 0 0 Z " fill="#8F3334" transform="translate(743,588)"/>
<path d="M0 0 C0.66 0.33 1.32 0.66 2 1 C1.01 2.485 1.01 2.485 0 4 C-0.66 4 -1.32 4 -2 4 C-2.66 5.32 -3.32 6.64 -4 8 C-4.66 8 -5.32 8 -6 8 C-6.268125 8.639375 -6.53625 9.27875 -6.8125 9.9375 C-8 12 -8 12 -11 13 C-10.67 12.01 -10.34 11.02 -10 10 C-9.34 10 -8.68 10 -8 10 C-7.731875 9.360625 -7.46375 8.72125 -7.1875 8.0625 C-6 6 -6 6 -3 5 C-3 4.34 -3 3.68 -3 3 C-1.5 1.375 -1.5 1.375 0 0 Z " fill="#C8433F" transform="translate(722,569)"/>
<path d="M0 0 C-1.5830577 4.2742558 -4.50568404 6.26531794 -8 9 C-7.45276317 5.62537285 -6.9451 3.91765 -5 1 C-2 0 -2 0 0 0 Z " fill="#B03C3C" transform="translate(766,566)"/>
<path d="M0 0 C3.97497544 3.40712181 5.86793788 7.32760855 8 12 C7.34 12 6.68 12 6 12 C6 11.34 6 10.68 6 10 C4.68 10 3.36 10 2 10 C1.8046875 7.94921875 1.609375 5.8984375 1.4140625 3.84765625 C1.27742187 3.23792969 1.14078125 2.62820313 1 2 C0.34 1.67 -0.32 1.34 -1 1 C-0.67 0.67 -0.34 0.34 0 0 Z " fill="#953431" transform="translate(832,258)"/>
<path d="M0 0 C2.64 0.33 5.28 0.66 8 1 C6.68 1.99 5.36 2.98 4 4 C3.34 3.67 2.68 3.34 2 3 C2 3.66 2 4.32 2 5 C0.68 5 -0.64 5 -2 5 C-1.34 3.35 -0.68 1.7 0 0 Z " fill="#A33434" transform="translate(706,168)"/>
<path d="M0 0 C0.99 0 1.98 0 3 0 C2.67 1.32 2.34 2.64 2 4 C1.34 4 0.68 4 0 4 C0 4.66 0 5.32 0 6 C-0.66 6 -1.32 6 -2 6 C-2.33 6.99 -2.66 7.98 -3 9 C-3.33 9 -3.66 9 -4 9 C-4 7.35 -4 5.7 -4 4 C-3.01 3.67 -2.02 3.34 -1 3 C-0.67 2.01 -0.34 1.02 0 0 Z " fill="#9F393A" transform="translate(639,691)"/>
<path d="M0 0 C0.99 0.33 1.98 0.66 3 1 C2.67 2.65 2.34 4.3 2 6 C2.66 6 3.32 6 4 6 C4.33 7.65 4.66 9.3 5 11 C0.3125 7.38671875 0.3125 7.38671875 -1 6 C-1 5.01 -1 4.02 -1 3 C-0.34 3 0.32 3 1 3 C0.67 2.01 0.34 1.02 0 0 Z " fill="#9C3C38" transform="translate(228,597)"/>
<path d="M0 0 C2 3 2 3 2 7 C0.02 7.66 -1.96 8.32 -4 9 C-2.80100302 5.9168649 -1.52299523 2.93720508 0 0 Z " fill="#A33434" transform="translate(125,266)"/>
<path d="M0 0 C0 1.65 0 3.3 0 5 C-0.66 5 -1.32 5 -2 5 C-2.33 5.99 -2.66 6.98 -3 8 C-3.66 8 -4.32 8 -5 8 C-5.33 6.68 -5.66 5.36 -6 4 C-1.125 0 -1.125 0 0 0 Z " fill="#AE3633" transform="translate(181,205)"/>
<path d="M0 0 C0.99 0 1.98 0 3 0 C3 1.32 3 2.64 3 4 C4.32 4 5.64 4 7 4 C7.33 5.98 7.66 7.96 8 10 C6.84481082 9.09515208 5.70114594 8.1755794 4.5625 7.25 C3.60537109 6.48429688 3.60537109 6.48429688 2.62890625 5.703125 C0.81189446 3.80332371 0.39576803 2.56413092 0 0 Z " fill="#913532" transform="translate(381,756)"/>
<path d="M0 0 C2.64752004 2.57784846 4.94432065 4.91648098 7 8 C5.02 8 3.04 8 1 8 C1 6.35 1 4.7 1 3 C0.01 2.67 -0.98 2.34 -2 2 C-1.34 2 -0.68 2 0 2 C0 1.34 0 0.68 0 0 Z " fill="#A73734" transform="translate(815,235)"/>
<path d="M0 0 C2.71675995 0.36712972 4.61063713 0.72744599 6.875 2.3125 C7.431875 3.1478125 7.431875 3.1478125 8 4 C7.5703125 6.10546875 7.5703125 6.10546875 7 8 C5.83035398 6.8572081 4.66435444 5.71068285 3.5 4.5625 C2.8503125 3.92441406 2.200625 3.28632812 1.53125 2.62890625 C0 1 0 1 0 0 Z " fill="#883934" transform="translate(240,615)"/>
<path d="M0 0 C2 3 2 3 2 7 C1.01 7.33 0.02 7.66 -1 8 C-1 8.99 -1 9.98 -1 11 C-1.99 11.33 -2.98 11.66 -4 12 C-3.52309796 10.37433394 -3.04340334 8.74948689 -2.5625 7.125 C-2.29566406 6.22007812 -2.02882813 5.31515625 -1.75390625 4.3828125 C-1 2 -1 2 0 0 Z " fill="#9C3636" transform="translate(112,291)"/>
<path d="M0 0 C1.11375 0.598125 2.2275 1.19625 3.375 1.8125 C4.00148438 2.14894531 4.62796875 2.48539063 5.2734375 2.83203125 C7 4 7 4 9 7 C8.01 7.495 8.01 7.495 7 8 C3.38269598 6.23772368 1.19924069 4.35673579 -1 1 C-0.67 0.67 -0.34 0.34 0 0 Z " fill="#A13A37" transform="translate(434,202)"/>
<path d="M0 0 C0.6875 1.8125 0.6875 1.8125 1 4 C-0.4375 5.75 -0.4375 5.75 -2 7 C-2.99 6.34 -3.98 5.68 -5 5 C-5 4.01 -5 3.02 -5 2 C-2 0 -2 0 0 0 Z " fill="#AE3534" transform="translate(547,187)"/>
<path d="M0 0 C1.32 0.66 2.64 1.32 4 2 C0.535 4.97 0.535 4.97 -3 8 C-3 6.68 -3 5.36 -3 4 C-2.34 4 -1.68 4 -1 4 C-0.67 2.68 -0.34 1.36 0 0 Z " fill="#8D3032" transform="translate(631,699)"/>
<path d="M0 0 C1.32 0 2.64 0 4 0 C4.33 0.99 4.66 1.98 5 3 C5.66 3.33 6.32 3.66 7 4 C6.67 5.32 6.34 6.64 6 8 C4.99403703 7.0479279 3.99538437 6.08812654 3 5.125 C2.443125 4.59132813 1.88625 4.05765625 1.3125 3.5078125 C0 2 0 2 0 0 Z " fill="#A23F3B" transform="translate(309,684)"/>
<path d="M0 0 C1.32 0.33 2.64 0.66 4 1 C1.69 3.31 -0.62 5.62 -3 8 C-3.33 6.68 -3.66 5.36 -4 4 C-2.3125 1.6875 -2.3125 1.6875 0 0 Z " fill="#AE3E3C" transform="translate(782,547)"/>
<path d="M0 0 C0 0.66 0 1.32 0 2 C0.66 2.33 1.32 2.66 2 3 C0.68 3 -0.64 3 -2 3 C-2 3.66 -2 4.32 -2 5 C-3.65 5.33 -5.3 5.66 -7 6 C-7.33 5.34 -7.66 4.68 -8 4 C-2.25 0 -2.25 0 0 0 Z " fill="#AD3634" transform="translate(197,194)"/>
<path d="M0 0 C1.98 0.495 1.98 0.495 4 1 C3.49396008 3.16874252 3.00016187 4.99967627 2 7 C1.01 6.67 0.02 6.34 -1 6 C-0.67 4.02 -0.34 2.04 0 0 Z " fill="#A63535" transform="translate(106,306)"/>
<path d="M0 0 C0.66 0.33 1.32 0.66 2 1 C1.67 1.66 1.34 2.32 1 3 C0.34 3 -0.32 3 -1 3 C-1.433125 3.928125 -1.433125 3.928125 -1.875 4.875 C-3 7 -3 7 -5 9 C-5.99 8.67 -6.98 8.34 -8 8 C-7.236875 7.4225 -6.47375 6.845 -5.6875 6.25 C-3.33799083 4.28296907 -1.70676495 2.51523256 0 0 Z " fill="#C9413E" transform="translate(598,694)"/>
<path d="M0 0 C0.99 0.66 1.98 1.32 3 2 C-0.465 4.97 -0.465 4.97 -4 8 C-3.50168276 4.31245243 -2.89932357 2.39509338 0 0 Z " fill="#B23E3B" transform="translate(775,554)"/>
<path d="M0 0 C5.75 0.875 5.75 0.875 8 2 C8 2.66 8 3.32 8 4 C8.66 4 9.32 4 10 4 C10 4.66 10 5.32 10 6 C10.66 6.33 11.32 6.66 12 7 C11.01 7 10.02 7 9 7 C9 6.34 9 5.68 9 5 C8.34 5 7.68 5 7 5 C7 4.34 7 3.68 7 3 C5.824375 3.0928125 5.824375 3.0928125 4.625 3.1875 C3.75875 3.125625 2.8925 3.06375 2 3 C1.34 2.01 0.68 1.02 0 0 Z " fill="#AD3536" transform="translate(145,518)"/>
<path d="M0 0 C0.66 0 1.32 0 2 0 C1.39009109 3.55780196 0.4216319 6.6828589 -1 10 C-1.66 9.34 -2.32 8.68 -3 8 C-2.625 5.875 -2.625 5.875 -2 4 C-1.34 4 -0.68 4 0 4 C-0.33 3.01 -0.66 2.02 -1 1 C-0.67 0.67 -0.34 0.34 0 0 Z " fill="#A03735" transform="translate(852,454)"/>
<path d="M0 0 C1.65 1.65 3.3 3.3 5 5 C3.68 5.33 2.36 5.66 1 6 C1.66 6.33 2.32 6.66 3 7 C2.01 7 1.02 7 0 7 C0 6.01 0 5.02 0 4 C-0.66 4 -1.32 4 -2 4 C-2 3.34 -2 2.68 -2 2 C-1.34 2 -0.68 2 0 2 C0 1.34 0 0.68 0 0 Z " fill="#962F30" transform="translate(800,219)"/>
<path d="M0 0 C0.33 0 0.66 0 1 0 C1 3.63 1 7.26 1 11 C0.01 11.33 -0.98 11.66 -2 12 C-1 3.42857143 -1 3.42857143 0 0 Z " fill="#993635" transform="translate(102,318)"/>
<path d="M0 0 C1.98 0.66 3.96 1.32 6 2 C4.68 2.33 3.36 2.66 2 3 C2 3.99 2 4.98 2 6 C1.01 6.33 0.02 6.66 -1 7 C-1.04254356 5.00045254 -1.04080783 2.99958364 -1 1 C-0.67 0.67 -0.34 0.34 0 0 Z " fill="#C1413B" transform="translate(476,240)"/>
<path d="M0 0 C3.36591866 1.44253657 5.51047079 3.33264727 8 6 C6.35 6.33 4.7 6.66 3 7 C0 2.25 0 2.25 0 0 Z " fill="#A63635" transform="translate(784,206)"/>
<path d="M0 0 C-0.33 1.32 -0.66 2.64 -1 4 C-2.32 4.33 -3.64 4.66 -5 5 C-5.66 4.01 -6.32 3.02 -7 2 C-4.35261084 0.5393715 -3.10551666 0 0 0 Z " fill="#A13332" transform="translate(230,177)"/>
<path d="M0 0 C2.375 0.25 2.375 0.25 5 1 C6.375 2.875 6.375 2.875 7 5 C6.67 5.99 6.34 6.98 6 8 C4.02 5.36 2.04 2.72 0 0 Z " fill="#A4413D" transform="translate(277,652)"/>
<path d="M0 0 C1.125 1.6875 1.125 1.6875 2 4 C1.125 6.75 1.125 6.75 0 9 C-2 7 -2 7 -2.125 4.375 C-2.08375 3.59125 -2.0425 2.8075 -2 2 C-1.34 2 -0.68 2 0 2 C0 1.34 0 0.68 0 0 Z " fill="#A13734" transform="translate(855,445)"/>
<path d="M0 0 C0.66 0.99 1.32 1.98 2 3 C1.34 3 0.68 3 0 3 C0.33 4.32 0.66 5.64 1 7 C0.01 7.495 0.01 7.495 -1 8 C-1.99 7.01 -2.98 6.02 -4 5 C-2.68 3.35 -1.36 1.7 0 0 Z " fill="#A33233" transform="translate(141,243)"/>
<path d="M0 0 C0 3 0 3 -2 5.1875 C-2.66 5.785625 -3.32 6.38375 -4 7 C-4.99 6.67 -5.98 6.34 -7 6 C-2.25 1.125 -2.25 1.125 0 0 Z " fill="#A43332" transform="translate(188,199)"/>
<path d="M0 0 C1.5625 1.25 1.5625 1.25 3 3 C2.6875 5.1875 2.6875 5.1875 2 7 C0.2925002 5.71937515 -1.37373596 4.38232443 -3 3 C-3 2.34 -3 1.68 -3 1 C-2.01 0.67 -1.02 0.34 0 0 Z " fill="#C54238" transform="translate(415,190)"/>
<path d="M0 0 C0.33 1.32 0.66 2.64 1 4 C-0.32 4.33 -1.64 4.66 -3 5 C-3 4.34 -3 3.68 -3 3 C-4.32 2.67 -5.64 2.34 -7 2 C-4.35261084 0.5393715 -3.10551666 0 0 0 Z " fill="#A63434" transform="translate(568,177)"/>
<path d="M0 0 C2.25245881 2.68841859 3.88213958 4.64641875 5 8 C4.01 8 3.02 8 2 8 C-0.1519437 4.77208445 -0.20086443 3.71599191 0 0 Z " fill="#9F3534" transform="translate(827,250)"/>
<path d="M0 0 C2.9375 0.8125 2.9375 0.8125 6 2 C6.33 2.99 6.66 3.98 7 5 C5.33333333 5 3.66666667 5 2 5 C2 4.01 2 3.02 2 2 C1.34 2 0.68 2 0 2 C0 1.34 0 0.68 0 0 Z " fill="#A43436" transform="translate(801,223)"/>
<path d="M0 0 C2.31 0 4.62 0 7 0 C5 3 5 3 2.375 3.6875 C1.199375 3.8421875 1.199375 3.8421875 0 4 C0 2.68 0 1.36 0 0 Z " fill="#C04338" transform="translate(419,196)"/>
<path d="M0 0 C1.98 0.66 3.96 1.32 6 2 C6 2.66 6 3.32 6 4 C6.66 4.33 7.32 4.66 8 5 C7.01 5.33 6.02 5.66 5 6 C3.35 4.02 1.7 2.04 0 0 Z " fill="#8F3835" transform="translate(248,623)"/>
<path d="M0 0 C1.32 0.66 2.64 1.32 4 2 C2.68 3.65 1.36 5.3 0 7 C-0.38133299 5.0085944 -0.71325582 3.00720923 -1 1 C-0.67 0.67 -0.34 0.34 0 0 Z " fill="#A0302F" transform="translate(834,487)"/>
<path d="M0 0 C0.66 0.33 1.32 0.66 2 1 C1.67 3.31 1.34 5.62 1 8 C0.01 8.33 -0.98 8.66 -2 9 C-1.34 6.03 -0.68 3.06 0 0 Z " fill="#B2413B" transform="translate(860,322)"/>
<path d="M0 0 C2.35953094 2.35953094 2.49141413 3.77895617 3 7 C2.34 7 1.68 7 1 7 C0.67 7.66 0.34 8.32 0 9 C0 7.35 0 5.7 0 4 C-0.66 4 -1.32 4 -2 4 C-2 3.34 -2 2.68 -2 2 C-1.34 2 -0.68 2 0 2 C0 1.34 0 0.68 0 0 Z " fill="#912E2D" transform="translate(851,293)"/>
<path d="M0 0 C0.66 0.99 1.32 1.98 2 3 C-0.97 5.475 -0.97 5.475 -4 8 C-4.66 7.67 -5.32 7.34 -6 7 C-4.02 4.69 -2.04 2.38 0 0 Z " fill="#9A3438" transform="translate(148,235)"/>
<path d="M0 0 C-3.96 1.98 -3.96 1.98 -8 4 C-8 3.34 -8 2.68 -8 2 C-8.99 1.67 -9.98 1.34 -11 1 C-4.5 -1.125 -4.5 -1.125 0 0 Z " fill="#9A3231" transform="translate(592,170)"/>
<path d="M0 0 C2.97 0.33 5.94 0.66 9 1 C7 3 7 3 4.375 3.125 C3.59125 3.08375 2.8075 3.0425 2 3 C2 2.34 2 1.68 2 1 C1.34 0.67 0.68 0.34 0 0 Z " fill="#C43E3B" transform="translate(277,164)"/>
<path d="M0 0 C0.66 0.33 1.32 0.66 2 1 C1.34 2.65 0.68 4.3 0 6 C-1.32 5.34 -2.64 4.68 -4 4 C-2.68 2.68 -1.36 1.36 0 0 Z " fill="#A93839" transform="translate(608,722)"/>
<path d="M0 0 C0.33 0.99 0.66 1.98 1 3 C3.01508358 3.73323796 3.01508358 3.73323796 5 4 C4.67 4.99 4.34 5.98 4 7 C2.02 5.35 0.04 3.7 -2 2 C-1.34 1.34 -0.68 0.68 0 0 Z " fill="#A53D39" transform="translate(319,692)"/>
<path d="M0 0 C2.97 0.495 2.97 0.495 6 1 C6.33 2.32 6.66 3.64 7 5 C6.01 5 5.02 5 4 5 C1.8125 2.5 1.8125 2.5 0 0 Z " fill="#8C3836" transform="translate(175,549)"/>
<path d="M0 0 C0.66 0.33 1.32 0.66 2 1 C0.8125 3.4375 0.8125 3.4375 -1 6 C-3.6875 6.8125 -3.6875 6.8125 -6 7 C-4.02 4.69 -2.04 2.38 0 0 Z " fill="#A23336" transform="translate(499,221)"/>
<path d="M0 0 C-0.33 0.99 -0.66 1.98 -1 3 C-1.66 3 -2.32 3 -3 3 C-3 3.99 -3 4.98 -3 6 C-4.32 5.67 -5.64 5.34 -7 5 C-2.25 0 -2.25 0 0 0 Z " fill="#9F3535" transform="translate(175,210)"/>
</svg>
